<svg xmlns="http://www.w3.org/2000/svg" xmlns:xlink="http://www.w3.org/1999/xlink" width="2000" zoomAndPan="magnify" viewBox="0 0 1500 1499.999933" height="2000" preserveAspectRatio="xMidYMid meet" version="1.0"><defs><g/><clipPath id="32401d2e68"><path d="M 83 241.007812 L 1416 241.007812 L 1416 1011 L 83 1011 Z M 83 241.007812 " clip-rule="nonzero"/></clipPath></defs><g fill="#fcf4df" fill-opacity="1"><g transform="translate(172.295849, 1201.355037)"><g><path d="M 14.859375 0 L 14.859375 -153.03125 L 71.046875 -153.03125 C 83.296875 -153.03125 93.390625 -150.953125 101.328125 -146.796875 C 109.273438 -142.648438 115.210938 -137.039062 119.140625 -129.96875 C 123.078125 -122.90625 125.046875 -115.070312 125.046875 -106.46875 C 125.046875 -97.144531 122.601562 -88.617188 117.71875 -80.890625 C 112.84375 -73.160156 105.234375 -67.550781 94.890625 -64.0625 L 126.578125 0 L 94.453125 0 L 66.03125 -60.34375 L 42.84375 -60.34375 L 42.84375 0 Z M 42.84375 -80.890625 L 69.296875 -80.890625 C 78.628906 -80.890625 85.476562 -83.148438 89.84375 -87.671875 C 94.21875 -92.191406 96.40625 -98.164062 96.40625 -105.59375 C 96.40625 -112.882812 94.253906 -118.710938 89.953125 -123.078125 C 85.660156 -127.453125 78.703125 -129.640625 69.078125 -129.640625 L 42.84375 -129.640625 Z M 42.84375 -80.890625 "/></g></g></g><g fill="#fcf4df" fill-opacity="1"><g transform="translate(338.226592, 1201.355037)"><g><path d="M 54.875 2.625 C 41.320312 2.625 30.863281 -1.597656 23.5 -10.046875 C 16.144531 -18.503906 12.46875 -30.894531 12.46875 -47.21875 L 12.46875 -108.4375 L 40.234375 -108.4375 L 40.234375 -49.84375 C 40.234375 -40.519531 42.125 -33.378906 45.90625 -28.421875 C 49.695312 -23.460938 55.675781 -20.984375 63.84375 -20.984375 C 71.5625 -20.984375 77.9375 -23.753906 82.96875 -29.296875 C 88 -34.835938 90.515625 -42.5625 90.515625 -52.46875 L 90.515625 -108.4375 L 118.5 -108.4375 L 118.5 0 L 93.796875 0 L 91.609375 -18.359375 C 88.253906 -11.953125 83.40625 -6.851562 77.0625 -3.0625 C 70.726562 0.726562 63.332031 2.625 54.875 2.625 Z M 54.875 2.625 "/></g></g></g><g fill="#fcf4df" fill-opacity="1"><g transform="translate(500.878103, 1201.355037)"><g><path d="M 14.203125 0 L 14.203125 -108.4375 L 38.921875 -108.4375 L 41.09375 -90.078125 C 44.445312 -96.484375 49.296875 -101.582031 55.640625 -105.375 C 61.984375 -109.164062 69.453125 -111.0625 78.046875 -111.0625 C 91.453125 -111.0625 101.875 -106.832031 109.3125 -98.375 C 116.75 -89.925781 120.46875 -77.539062 120.46875 -61.21875 L 120.46875 0 L 92.484375 0 L 92.484375 -58.59375 C 92.484375 -67.914062 90.585938 -75.054688 86.796875 -80.015625 C 83.003906 -84.972656 77.097656 -87.453125 69.078125 -87.453125 C 61.210938 -87.453125 54.765625 -84.679688 49.734375 -79.140625 C 44.703125 -73.597656 42.1875 -65.875 42.1875 -55.96875 L 42.1875 0 Z M 14.203125 0 "/></g></g></g><g fill="#fcf4df" fill-opacity="1"><g transform="translate(663.529599, 1201.355037)"><g/></g></g><g fill="#fcf4df" fill-opacity="1"><g transform="translate(745.292775, 1201.355037)"><g><path d="M 84.171875 2.625 C 68.722656 2.625 55.457031 -0.6875 44.375 -7.3125 C 33.300781 -13.945312 24.773438 -23.203125 18.796875 -35.078125 C 12.828125 -46.960938 9.84375 -60.703125 9.84375 -76.296875 C 9.84375 -91.890625 12.828125 -105.660156 18.796875 -117.609375 C 24.773438 -129.566406 33.300781 -138.894531 44.375 -145.59375 C 55.457031 -152.300781 68.722656 -155.65625 84.171875 -155.65625 C 102.535156 -155.65625 117.582031 -151.097656 129.3125 -141.984375 C 141.050781 -132.878906 148.375 -120.09375 151.28125 -103.625 L 120.46875 -103.625 C 118.570312 -111.9375 114.523438 -118.457031 108.328125 -123.1875 C 102.128906 -127.925781 93.929688 -130.296875 83.734375 -130.296875 C 69.597656 -130.296875 58.519531 -125.484375 50.5 -115.859375 C 42.488281 -106.242188 38.484375 -93.054688 38.484375 -76.296875 C 38.484375 -59.535156 42.488281 -46.378906 50.5 -36.828125 C 58.519531 -27.285156 69.597656 -22.515625 83.734375 -22.515625 C 93.929688 -22.515625 102.128906 -24.738281 108.328125 -29.1875 C 114.523438 -33.632812 118.570312 -39.789062 120.46875 -47.65625 L 151.28125 -47.65625 C 148.375 -31.914062 141.050781 -19.597656 129.3125 -10.703125 C 117.582031 -1.816406 102.535156 2.625 84.171875 2.625 Z M 84.171875 2.625 "/></g></g></g><g fill="#fcf4df" fill-opacity="1"><g transform="translate(936.145881, 1201.355037)"><g><path d="M 14.203125 0 L 14.203125 -157.40625 L 42.1875 -157.40625 L 42.1875 0 Z M 14.203125 0 "/></g></g></g><g fill="#fcf4df" fill-opacity="1"><g transform="translate(1022.500061, 1201.355037)"><g><path d="M 54.875 2.625 C 41.320312 2.625 30.863281 -1.597656 23.5 -10.046875 C 16.144531 -18.503906 12.46875 -30.894531 12.46875 -47.21875 L 12.46875 -108.4375 L 40.234375 -108.4375 L 40.234375 -49.84375 C 40.234375 -40.519531 42.125 -33.378906 45.90625 -28.421875 C 49.695312 -23.460938 55.675781 -20.984375 63.84375 -20.984375 C 71.5625 -20.984375 77.9375 -23.753906 82.96875 -29.296875 C 88 -34.835938 90.515625 -42.5625 90.515625 -52.46875 L 90.515625 -108.4375 L 118.5 -108.4375 L 118.5 0 L 93.796875 0 L 91.609375 -18.359375 C 88.253906 -11.953125 83.40625 -6.851562 77.0625 -3.0625 C 70.726562 0.726562 63.332031 2.625 54.875 2.625 Z M 54.875 2.625 "/></g></g></g><g fill="#fcf4df" fill-opacity="1"><g transform="translate(1185.151534, 1201.355037)"><g><path d="M 78.484375 2.625 C 70.328125 2.625 63.1875 1.09375 57.0625 -1.96875 C 50.9375 -5.03125 45.976562 -9.328125 42.1875 -14.859375 L 39.140625 0 L 14.203125 0 L 14.203125 -157.40625 L 42.1875 -157.40625 L 42.1875 -92.921875 C 45.6875 -97.722656 50.316406 -101.945312 56.078125 -105.59375 C 61.835938 -109.238281 69.304688 -111.0625 78.484375 -111.0625 C 88.691406 -111.0625 97.800781 -108.582031 105.8125 -103.625 C 113.832031 -98.664062 120.171875 -91.882812 124.828125 -83.28125 C 129.492188 -74.6875 131.828125 -64.925781 131.828125 -54 C 131.828125 -43.070312 129.492188 -33.34375 124.828125 -24.8125 C 120.171875 -16.289062 113.832031 -9.585938 105.8125 -4.703125 C 97.800781 0.179688 88.691406 2.625 78.484375 2.625 Z M 72.578125 -21.859375 C 81.472656 -21.859375 88.832031 -24.847656 94.65625 -30.828125 C 100.488281 -36.804688 103.40625 -44.53125 103.40625 -54 C 103.40625 -63.476562 100.488281 -71.273438 94.65625 -77.390625 C 88.832031 -83.515625 81.472656 -86.578125 72.578125 -86.578125 C 63.546875 -86.578125 56.148438 -83.550781 50.390625 -77.5 C 44.628906 -71.445312 41.75 -63.6875 41.75 -54.21875 C 41.75 -44.75 44.628906 -36.988281 50.390625 -30.9375 C 56.148438 -24.882812 63.546875 -21.859375 72.578125 -21.859375 Z M 72.578125 -21.859375 "/></g></g></g><g clip-path="url(#32401d2e68)"><path fill="#fcf4df" d="M 986.144531 240.550781 L 990.40625 240.515625 L 995.054688 240.535156 L 999.972656 240.511719 C 1004.417969 240.488281 1008.863281 240.488281 1013.308594 240.496094 C 1017.027344 240.5 1020.742188 240.492188 1024.460938 240.484375 C 1033.234375 240.46875 1042.007812 240.46875 1050.785156 240.484375 C 1059.820312 240.496094 1068.855469 240.480469 1077.890625 240.449219 C 1085.660156 240.425781 1093.429688 240.414062 1101.199219 240.421875 C 1105.835938 240.425781 1110.46875 240.421875 1115.105469 240.402344 C 1119.46875 240.386719 1123.832031 240.390625 1128.195312 240.414062 C 1130.546875 240.417969 1132.898438 240.402344 1135.25 240.382812 C 1143.949219 240.453125 1150.09375 241.609375 1157.738281 245.707031 C 1160.394531 246.605469 1163.0625 247.460938 1165.742188 248.277344 C 1196.445312 258.175781 1227.929688 274.386719 1251.695312 296.371094 C 1254.933594 299.363281 1258.3125 302.175781 1261.695312 304.996094 C 1263.492188 306.8125 1263.492188 306.8125 1264.667969 310.335938 L 1268.191406 311.511719 L 1268.191406 313.859375 L 1270.542969 313.859375 C 1272.136719 315.601562 1272.136719 315.601562 1273.949219 318.023438 L 1275.949219 320.675781 L 1278.035156 323.480469 L 1282.097656 328.894531 L 1284.058594 331.515625 C 1285.433594 333.320312 1286.851562 335.09375 1288.304688 336.835938 C 1291.289062 340.71875 1293.664062 344.871094 1296.101562 349.113281 C 1300.378906 356.53125 1300.378906 356.53125 1304.875 363.816406 C 1324.300781 394.183594 1334.488281 435.445312 1336.230469 471.15625 L 1336.34375 473.667969 C 1336.425781 475.003906 1336.511719 476.34375 1336.59375 477.722656 C 1337.566406 508.214844 1330.027344 538.085938 1320.335938 566.714844 L 1319.011719 570.652344 C 1316.847656 576.816406 1314.867188 581.535156 1310.496094 586.472656 C 1308.847656 589.296875 1307.40625 592.21875 1305.941406 595.136719 C 1303.335938 600.226562 1300.875 604.761719 1296.90625 608.945312 L 1294.042969 612.324219 C 1293.601562 615.316406 1293.601562 615.316406 1295.21875 618.199219 C 1298.273438 620.117188 1301.605469 621.234375 1304.984375 622.457031 C 1326.171875 630.777344 1348.144531 641.921875 1363.371094 659.324219 L 1363.371094 661.675781 L 1366.898438 662.851562 C 1368.910156 664.753906 1370.867188 666.714844 1372.773438 668.726562 L 1375.503906 671.507812 C 1383.597656 680.097656 1390.121094 689.234375 1396.273438 699.277344 L 1397.605469 701.425781 C 1404.90625 713.394531 1408.664062 725.566406 1411.546875 739.230469 L 1412.132812 741.90625 C 1418.292969 770.96875 1415.355469 800.6875 1406.714844 828.9375 C 1404.109375 836.738281 1400.519531 843.835938 1396.273438 850.859375 L 1394.875 853.191406 C 1383.230469 872.195312 1367.972656 886.964844 1349.15625 898.792969 C 1347.109375 900.089844 1345.101562 901.453125 1343.097656 902.816406 C 1332.980469 909.410156 1322.101562 914.109375 1311.007812 918.789062 L 1308.671875 919.785156 C 1294.421875 925.804688 1279.941406 930.34375 1264.742188 933.332031 L 1261.71875 933.925781 C 1237.003906 938.585938 1210.71875 937.585938 1185.9375 933.847656 L 1183.171875 933.441406 C 1178.007812 932.609375 1173.40625 931.320312 1168.554688 929.382812 C 1161.984375 926.921875 1155.113281 925.242188 1148.359375 923.351562 C 1137.292969 920.210938 1126.636719 916.019531 1116.390625 910.785156 L 1114.042969 909.609375 C 1100 902.527344 1100 902.527344 1097.222656 899.402344 L 1095.460938 897.859375 C 1091.21875 897.003906 1091.21875 897.003906 1087.234375 896.683594 C 1086.128906 898.296875 1085.027344 899.914062 1083.929688 901.53125 L 1082.070312 904.257812 C 1080.105469 907.277344 1080.105469 907.277344 1078.464844 910.710938 C 1073.617188 920.382812 1067.046875 930.445312 1059.035156 937.8125 L 1056.683594 937.8125 L 1055.734375 939.949219 C 1053.023438 944.910156 1048.359375 948.117188 1043.664062 951.132812 C 1041.078125 952.640625 1038.464844 954.097656 1035.828125 955.511719 L 1032.984375 957.058594 C 1001.414062 974.070312 967.800781 980.960938 932.128906 982.464844 L 928.820312 982.605469 C 912.4375 983.203125 896.589844 981.550781 880.425781 978.9375 L 877.828125 978.539062 C 869.050781 977.152344 862.367188 974.976562 854.964844 970.042969 C 850.792969 967.484375 846.347656 966.128906 841.648438 964.839844 L 841.648438 962.488281 L 839.460938 961.800781 L 836.582031 960.871094 L 833.730469 959.964844 C 831.074219 958.964844 831.074219 958.964844 827.550781 956.613281 C 819.148438 955.574219 812.460938 958.332031 804.632812 961.195312 C 741.558594 984.0625 663.832031 1005.34375 596.136719 999.0625 L 593.105469 998.78125 C 586.15625 998.078125 579.386719 996.871094 572.5625 995.390625 L 572.5625 993.039062 L 570.53125 992.730469 C 557.082031 990.402344 545.144531 985.253906 533.785156 977.765625 L 530.390625 975.550781 C 526.59375 972.964844 522.945312 970.226562 519.320312 967.40625 L 517.304688 965.867188 C 514.273438 963.542969 511.324219 961.195312 508.449219 958.679688 C 506 956.558594 503.691406 954.703125 500.886719 953.089844 C 496.675781 952.351562 496.675781 952.351562 493.996094 953.128906 C 489.617188 955.105469 485.996094 958.023438 482.203125 960.945312 C 444.726562 988.886719 396.429688 1002.605469 350.710938 1008.757812 C 313.84375 1012.625 269.257812 1011.421875 234.816406 996.324219 C 230.542969 994.265625 226.476562 991.929688 222.398438 989.515625 L 218.875 988.339844 L 218.875 985.988281 L 216.402344 985.050781 C 207.289062 981.269531 198.484375 976.675781 191.226562 969.933594 C 188.535156 967.492188 185.496094 965.632812 182.449219 963.664062 C 177.695312 960.4375 173.589844 957.15625 169.523438 953.085938 L 166.65625 951.398438 C 158.65625 946.519531 152.757812 938.15625 148.296875 930.027344 C 145.238281 924.699219 141.539062 920.40625 137.207031 916.074219 C 131.117188 909.980469 127.890625 905.308594 124.898438 897.277344 C 123.433594 893.695312 121.515625 890.652344 119.410156 887.414062 C 113.859375 878.773438 110.050781 870.40625 107.257812 860.527344 C 105.714844 855.597656 103.59375 851.066406 101.3125 846.441406 C 100.195312 843.808594 100.195312 843.808594 100.195312 840.28125 L 97.84375 840.28125 C 97.035156 836.707031 96.550781 833.203125 96.226562 829.5625 C 95.800781 825.390625 94.925781 821.605469 93.730469 817.589844 C 91.96875 811.59375 91.464844 805.898438 91.269531 799.667969 L 90.792969 796.804688 L 87.269531 794.457031 L 87.269531 792.105469 L 89.617188 792.105469 C 89.289062 789.78125 88.941406 787.453125 88.589844 785.128906 L 88.011719 781.203125 L 87.269531 778.003906 L 84.917969 776.832031 L 84.960938 774.671875 C 84.972656 773.6875 84.980469 772.703125 84.992188 771.691406 L 85.035156 768.800781 C 84.941406 765.78125 84.6875 762.921875 84.339844 759.929688 C 83.597656 752.621094 83.53125 745.347656 83.503906 738.007812 L 83.484375 733.597656 C 83.472656 730.523438 83.464844 727.449219 83.460938 724.371094 C 83.449219 719.765625 83.414062 715.15625 83.375 710.550781 C 83.304688 692.941406 84.203125 675.894531 86.949219 658.488281 C 87.289062 655.609375 87.320312 652.820312 87.269531 649.925781 L 89.617188 649.925781 L 89.667969 647.574219 C 91.046875 618.925781 100.179688 589.898438 109.59375 562.972656 C 110.171875 561.242188 110.746094 559.515625 111.320312 557.785156 C 113.941406 549.992188 116.347656 542.929688 121.101562 536.164062 C 123.105469 532.535156 124.15625 528.667969 125.3125 524.707031 C 130.945312 505.644531 141.089844 488.597656 150.722656 471.316406 L 152.199219 468.652344 C 159.25 455.957031 159.25 455.957031 162.484375 451.914062 C 164.953125 448.828125 166.800781 445.6875 168.714844 442.234375 C 171.882812 436.691406 175.347656 431.789062 179.371094 426.84375 C 181.296875 424.285156 182.742188 421.722656 184.210938 418.882812 C 186.636719 414.304688 189.480469 411.09375 193.234375 407.558594 C 198.398438 402.625 202.886719 397.097656 207.128906 391.363281 C 212.5625 384.34375 218.917969 378.273438 225.261719 372.097656 C 227.617188 369.804688 229.96875 367.507812 232.308594 365.203125 L 235.433594 362.160156 L 237.675781 359.6875 L 237.675781 357.339844 L 239.695312 357.085938 C 243.378906 355.816406 245.039062 353.667969 247.664062 350.800781 C 252.925781 345.351562 258.390625 341.402344 264.769531 337.363281 C 268.214844 335.019531 271.140625 332.496094 274.175781 329.652344 C 279.964844 324.273438 286.128906 320.246094 292.902344 316.210938 C 294.277344 315.371094 295.648438 314.527344 297.019531 313.683594 C 325.964844 295.953125 355.839844 283.910156 389.035156 276.554688 L 392.21875 275.847656 C 408.28125 272.441406 424 271.074219 440.371094 271.117188 L 443.167969 271.121094 C 474.070312 271.234375 507.984375 277.03125 535.167969 292.480469 C 539.066406 294.835938 542.894531 297.277344 546.710938 299.761719 L 550.273438 302 C 556.824219 306.214844 563.078125 310.828125 569.039062 315.84375 L 570.960938 317.453125 C 573.828125 319.910156 576.296875 322.351562 578.648438 325.3125 C 580.691406 328.253906 580.691406 328.253906 584.460938 329.578125 L 589.015625 329.136719 C 592.136719 326.863281 594.800781 324.316406 597.566406 321.617188 C 619.1875 300.960938 647.296875 287.363281 676.019531 280.050781 C 693.144531 275.960938 709.28125 273.671875 726.878906 273.628906 C 729.472656 273.617188 732.066406 273.578125 734.65625 273.542969 C 759.355469 273.359375 784.648438 279.65625 806.398438 291.535156 C 816.210938 297.476562 826.320312 303.910156 832.929688 313.476562 L 834.597656 315.035156 C 837.371094 315.75 837.371094 315.75 840.476562 315.035156 C 846.003906 311.90625 850.585938 307.78125 855.308594 303.578125 C 861.511719 298.164062 867.855469 293.378906 874.808594 288.941406 C 877.855469 286.976562 880.746094 284.882812 883.65625 282.722656 C 890.734375 277.738281 898.4375 274.140625 906.214844 270.398438 C 908.488281 269.277344 910.714844 268.105469 912.941406 266.898438 C 930.839844 257.300781 950.417969 251.34375 969.867188 245.730469 C 973.269531 244.683594 973.269531 244.683594 975.964844 242.726562 C 979.667969 240.714844 981.953125 240.5625 986.144531 240.550781 M 680.667969 337.363281 L 680.667969 339.710938 L 677.289062 339.933594 C 671.246094 340.773438 665.847656 343.59375 660.691406 346.761719 L 659.515625 349.113281 C 657.566406 350.25 655.605469 351.367188 653.628906 352.460938 C 649.914062 354.609375 646.523438 357.148438 643.066406 359.6875 C 645.160156 361.03125 645.160156 361.03125 647.765625 362.039062 C 652.714844 361.527344 656.65625 358.449219 660.765625 355.871094 C 671.539062 349.273438 682.253906 344.425781 694.375 340.765625 L 697.117188 339.710938 L 698.292969 337.363281 L 697.117188 335.011719 C 691.019531 334.761719 686.394531 335.492188 680.667969 337.363281 M 831.074219 539.46875 C 827.441406 555.78125 827.441406 555.78125 826.375 572.371094 L 832.25 573.546875 C 835.277344 556.613281 835.277344 556.613281 835.773438 539.46875 Z M 831.074219 539.46875 " fill-opacity="1" fill-rule="nonzero"/></g><path fill="#000000" d="M 1020.257812 293.886719 C 1031.769531 293.773438 1043.28125 293.695312 1054.796875 293.640625 C 1060.144531 293.617188 1065.492188 293.582031 1070.839844 293.53125 C 1076.011719 293.480469 1081.183594 293.453125 1086.359375 293.4375 C 1088.320312 293.429688 1090.28125 293.414062 1092.242188 293.386719 C 1103.46875 293.246094 1113.0625 293.917969 1123.808594 297.472656 C 1128.277344 298.945312 1132.59375 299.605469 1137.25 300.273438 C 1161.101562 304.144531 1184.195312 317.5 1203.515625 331.6875 L 1205.914062 333.835938 L 1205.914062 336.1875 L 1208.539062 337.109375 C 1218.804688 341.617188 1226.453125 352.066406 1232.941406 360.863281 C 1234.832031 363.800781 1236.640625 366.789062 1238.367188 369.828125 C 1239.898438 372.453125 1241.550781 374.902344 1243.296875 377.386719 C 1250.898438 388.644531 1257.101562 401.21875 1262.316406 413.742188 L 1264.152344 417.707031 C 1275.710938 446.855469 1274.9375 481.773438 1271.71875 512.445312 C 1271.160156 515.769531 1270.398438 518.871094 1269.515625 522.140625 L 1268.875 524.527344 C 1268.265625 526.769531 1267.644531 529.007812 1267.015625 531.246094 L 1266.171875 534.59375 C 1264.09375 542.40625 1260.457031 548.941406 1256.441406 555.921875 C 1255.542969 557.570312 1254.648438 559.222656 1253.757812 560.878906 L 1250.933594 566.054688 L 1249.578125 568.589844 C 1248.421875 570.683594 1247.152344 572.707031 1245.867188 574.722656 L 1242.339844 575.898438 C 1241.902344 577.453125 1241.507812 579.019531 1241.167969 580.597656 C 1233.277344 594.046875 1218.722656 603.878906 1206.242188 612.695312 C 1203.03125 615.070312 1200.417969 617.648438 1197.691406 620.550781 L 1194.164062 622.898438 C 1194.253906 628.320312 1194.585938 632.066406 1197.167969 636.890625 C 1198.605469 639.109375 1200.074219 641.308594 1201.578125 643.484375 C 1203.566406 646.398438 1203.566406 646.398438 1204.707031 649.058594 L 1205.914062 651.101562 C 1208.085938 651.890625 1208.085938 651.890625 1210.613281 652.273438 C 1212.605469 653.136719 1214.589844 654.019531 1216.5625 654.917969 C 1223.65625 657.921875 1230.789062 659.863281 1238.230469 661.738281 C 1247.914062 664.191406 1257.375 667.210938 1266.875 670.289062 C 1270.402344 671.402344 1273.964844 672.40625 1277.519531 673.425781 C 1289.363281 677.125 1299.113281 682.8125 1309.027344 690.171875 L 1311.578125 692.0625 C 1316.042969 695.476562 1316.042969 695.476562 1317.542969 696.925781 L 1317.542969 699.277344 L 1319.527344 700.160156 C 1326.132812 703.726562 1329.890625 708.382812 1333.847656 714.554688 L 1335.386719 716.917969 C 1336.894531 719.253906 1338.386719 721.601562 1339.871094 723.953125 L 1342.292969 727.75 C 1348.621094 738.070312 1353.222656 748.820312 1353.933594 761.027344 C 1353.984375 766.71875 1353.917969 772.390625 1353.75 778.078125 L 1353.6875 781.363281 C 1353.355469 789.289062 1351.460938 795.527344 1348.097656 802.679688 L 1347.015625 805.03125 C 1346.03125 807.097656 1345.019531 809.15625 1343.984375 811.199219 L 1341.964844 815.257812 C 1339.902344 819.074219 1337.609375 822.601562 1335.171875 826.183594 L 1333.703125 829.046875 C 1331.109375 832.84375 1327.941406 835.4375 1324.40625 838.347656 C 1321.984375 840.351562 1321.984375 840.351562 1319.894531 843.808594 C 1317.550781 845.09375 1315.15625 846.101562 1312.699219 847.144531 L 1310.496094 848.507812 L 1308.144531 853.207031 C 1301.6875 858.398438 1294.921875 861.070312 1286.800781 862.34375 L 1284.644531 862.609375 L 1284.644531 864.960938 C 1268.378906 871.371094 1251.542969 876.1875 1234.117188 877.882812 L 1229.527344 878.363281 C 1204.402344 880.617188 1178.378906 876.714844 1155.386719 866.132812 L 1155.386719 863.785156 L 1153.320312 863.09375 C 1151.417969 862.460938 1149.515625 861.824219 1147.617188 861.179688 C 1145.402344 860.453125 1143.164062 859.792969 1140.917969 859.15625 C 1137.304688 857.726562 1135.75 855.976562 1133.0625 853.207031 C 1131.003906 852.042969 1128.9375 850.890625 1126.859375 849.753906 C 1123.753906 847.84375 1121.46875 845.265625 1118.960938 842.632812 C 1116.773438 840.777344 1114.5625 838.949219 1112.328125 837.148438 L 1110.734375 835.582031 L 1110.734375 833.234375 L 1108.386719 833.234375 L 1107.210938 829.707031 C 1105.421875 828.226562 1103.585938 826.808594 1101.703125 825.449219 C 1096.574219 821.484375 1093.179688 817.617188 1089.882812 812.058594 C 1088.425781 809.753906 1086.8125 808.113281 1084.886719 806.207031 L 1083.417969 803.121094 C 1081.632812 799.683594 1079.902344 797.265625 1077.46875 794.308594 C 1069.472656 784.21875 1065.136719 772.421875 1060.796875 760.445312 C 1059.171875 755.980469 1057.347656 751.613281 1055.507812 747.234375 C 1051.359375 736.996094 1048.484375 726.417969 1045.601562 715.761719 C 1045.035156 713.777344 1044.421875 711.808594 1043.757812 709.851562 L 1041.40625 709.851562 L 1041.40625 707.503906 L 1033.183594 708.675781 C 1031.453125 717.757812 1032.59375 726.355469 1033.625 735.484375 L 1034.121094 740.191406 C 1034.855469 748.050781 1034.855469 748.050781 1036.707031 755.679688 C 1036.84375 757.96875 1036.917969 760.257812 1036.953125 762.550781 C 1036.988281 763.917969 1037.023438 765.285156 1037.058594 766.691406 C 1037.117188 769.550781 1037.167969 772.410156 1037.214844 775.269531 C 1037.414062 782.851562 1038.042969 789.4375 1040.664062 796.585938 C 1041.515625 799.527344 1041.613281 801.988281 1041.40625 805.03125 L 1040.234375 806.207031 C 1039.964844 808.378906 1039.742188 810.558594 1039.574219 812.742188 L 1039.273438 816.347656 L 1039.058594 819.132812 L 1041.40625 819.132812 C 1042.320312 835.34375 1039.5 849.753906 1032.351562 864.421875 C 1030.445312 868.066406 1028.453125 871.667969 1026.378906 875.222656 C 1024.804688 878.042969 1024.804688 878.042969 1023.40625 881.855469 C 1021.238281 886.53125 1018.761719 889.675781 1015.261719 893.378906 L 1013.652344 895.1875 C 1009.609375 899.550781 1005.519531 902.101562 1000.28125 904.910156 L 996.707031 907.34375 C 979.8125 918.367188 955.5625 923.601562 935.652344 924.886719 C 914.234375 925.945312 895.027344 924.734375 875.238281 915.898438 C 868.128906 912.183594 862.394531 907.195312 856.925781 901.386719 L 858.101562 899.035156 C 860.050781 897.871094 862 896.714844 863.996094 895.625 C 876.789062 888.652344 876.789062 888.652344 887.257812 878.765625 C 890.425781 874.777344 893.589844 872.855469 898.273438 870.980469 L 900.402344 869.660156 C 901.195312 867.703125 901.976562 865.746094 902.753906 863.785156 C 905.691406 860.480469 905.691406 860.480469 908.628906 857.910156 L 910.976562 857.910156 L 911.933594 855.191406 C 913.328125 852.035156 913.328125 852.035156 914.96875 850.460938 C 922.863281 842.28125 927.242188 827.449219 930.953125 816.78125 C 931.414062 814.445312 931.808594 812.09375 932.128906 809.730469 L 932.714844 806.363281 C 936.429688 784.023438 937.484375 760.417969 929.835938 738.734375 C 925.605469 728.34375 918.230469 718.464844 909.800781 711.027344 C 890.988281 699.214844 872.871094 695.238281 850.988281 694.375 C 845.992188 694.195312 840.992188 694.054688 835.996094 693.914062 L 830.769531 693.761719 C 826.5625 693.640625 822.355469 693.519531 818.148438 693.402344 C 815.75 684.761719 817.191406 675.683594 818.074219 666.890625 L 818.386719 663.660156 C 819.972656 647.453125 819.972656 647.453125 821.675781 644.050781 C 821.910156 642.292969 822.101562 640.527344 822.261719 638.761719 C 822.71875 633.734375 822.71875 633.734375 824.023438 631.125 C 824.242188 627.792969 824.40625 624.472656 824.539062 621.136719 C 824.863281 614.191406 825.40625 607.574219 826.996094 600.785156 C 827.777344 597.179688 828.109375 593.5625 828.433594 589.890625 C 828.722656 587.648438 828.722656 587.648438 829.898438 584.121094 L 829.753906 580.671875 C 829.6875 576.777344 830.457031 573.542969 831.515625 569.800781 C 833.804688 561.25 834.496094 552.644531 835.269531 543.859375 C 836.511719 529.765625 836.511719 529.765625 838.125 526.546875 C 838.488281 523.5 838.722656 520.453125 838.96875 517.398438 L 839.300781 514.792969 L 840.476562 513.621094 C 840.898438 510.851562 841.257812 508.101562 841.578125 505.320312 L 842.1875 500.1875 L 842.5 497.507812 C 842.820312 494.871094 843.15625 492.234375 843.5 489.597656 C 843.605469 488.757812 843.714844 487.921875 843.828125 487.0625 L 844.742188 480.042969 C 845.234375 476.140625 845.234375 476.140625 845.167969 472.691406 C 845.175781 470.144531 845.175781 470.144531 846.351562 467.792969 L 846.277344 464.5625 C 846.351562 460.742188 846.351562 460.742188 847.429688 457.8125 C 849.203125 452.0625 849.671875 446.296875 850.316406 440.324219 C 852.394531 422.703125 855.859375 407.375 863.976562 391.414062 L 865.566406 388.105469 C 868.210938 382.644531 871.027344 377.570312 874.550781 372.613281 L 875.941406 370.566406 C 880.6875 363.675781 886.382812 358.328125 892.820312 353.027344 C 894.675781 351.511719 894.675781 351.511719 895.703125 349.113281 C 898.824219 347.058594 901.546875 345.597656 905.101562 344.414062 L 906.277344 340.886719 C 908.375 339.464844 908.375 339.464844 911.050781 338.097656 C 915.644531 335.683594 920 333.0625 924.339844 330.214844 C 926.253906 329.136719 926.253906 329.136719 928.601562 329.136719 L 928.601562 326.785156 C 937.703125 322.054688 946.753906 317.675781 956.394531 314.136719 C 959.023438 313.167969 961.632812 312.152344 964.226562 311.089844 C 975.113281 306.71875 986.25 303.53125 997.5625 300.496094 L 999.945312 299.851562 C 1002.214844 299.238281 1004.484375 298.640625 1006.757812 298.042969 L 1010.777344 296.988281 C 1014.070312 296.300781 1016.910156 296.082031 1020.257812 296.234375 Z M 457.410156 331.488281 L 460.183594 331.777344 C 478.855469 333.875 497.015625 339.707031 512.636719 350.289062 C 514.324219 351.292969 516.011719 352.296875 517.703125 353.300781 C 521.65625 355.785156 524.679688 358.644531 527.910156 362.039062 C 530.292969 364.15625 532.695312 366.253906 535.117188 368.328125 C 539.125 371.863281 539.125 371.863281 540.835938 373.789062 L 540.835938 376.140625 L 544.363281 377.3125 C 545.503906 379.207031 546.636719 381.109375 547.671875 383.058594 C 549.769531 386.796875 552.265625 390.25 554.734375 393.746094 L 556.113281 396.113281 L 556.113281 399.640625 L 558.464844 399.640625 L 559.464844 401.753906 L 564.042969 411.390625 L 565.625 414.71875 C 567.960938 419.636719 570.316406 424.542969 572.804688 429.386719 C 580.078125 443.894531 581.507812 460.722656 583.824219 476.574219 C 584.257812 479.484375 584.257812 479.484375 584.96875 482.042969 C 585.488281 484.242188 585.488281 484.242188 585.417969 488.136719 C 585.289062 492.4375 585.289062 492.4375 586.648438 496.257812 C 587.917969 500.996094 588.171875 505.320312 588.140625 510.179688 L 588.15625 512.9375 C 588.167969 515.925781 588.160156 518.914062 588.152344 521.902344 L 588.15625 528.1875 C 588.160156 532.570312 588.15625 536.953125 588.144531 541.335938 C 588.132812 546.925781 588.140625 552.515625 588.152344 558.105469 C 588.160156 562.429688 588.160156 566.753906 588.152344 571.078125 C 588.152344 573.136719 588.152344 575.195312 588.160156 577.253906 C 588.199219 596.722656 588.199219 596.722656 586.007812 605.367188 C 585.160156 609.058594 585.359375 612.671875 585.488281 616.4375 C 585.574219 622.527344 585.207031 627.839844 583.804688 633.742188 C 582.929688 638.027344 582.496094 642.347656 582.039062 646.695312 C 581.195312 654.441406 579.839844 661.929688 578.105469 669.535156 C 577.296875 673.273438 576.699219 676.984375 576.164062 680.769531 C 574.15625 694.21875 572.082031 707.859375 565.457031 719.890625 C 564.105469 722.8125 564.105469 722.8125 564.460938 726.316406 C 564.277344 733.269531 561.960938 739.300781 559.710938 745.839844 L 558.261719 750.105469 C 551.457031 769.765625 543.054688 788.222656 533.175781 806.519531 C 530.765625 811.019531 528.660156 815.597656 526.625 820.28125 C 521.617188 831.472656 514.285156 841.261719 506.761719 850.859375 L 504.371094 853.941406 C 498.085938 861.933594 491.503906 869.742188 484.234375 876.855469 C 481.925781 879.039062 481.925781 879.039062 480.320312 882.144531 C 478.558594 884.933594 478.558594 884.933594 476.355469 886.109375 L 473.859375 887.285156 C 470.632812 890.261719 467.886719 893.289062 465.195312 896.757812 C 462.148438 900.167969 459.800781 901.695312 455.847656 903.753906 C 453.605469 904.960938 453.605469 904.960938 451.238281 907.628906 C 446.464844 912.292969 440.964844 915.867188 435.082031 919.011719 C 431.742188 919.835938 431.742188 919.835938 429.207031 920.1875 L 429.207031 922.535156 C 419.183594 927.679688 409.164062 932.539062 398.65625 936.636719 L 396.191406 937.609375 C 383.121094 942.742188 370.167969 946.964844 356.355469 949.5625 L 352.125 950.367188 C 327.910156 954.121094 301.300781 953.945312 277.625 947.210938 C 272.332031 945.140625 267.253906 942.683594 262.132812 940.234375 C 257.109375 937.878906 252.257812 936.019531 246.929688 934.507812 C 240.019531 932.339844 235.449219 928.644531 230.0625 923.894531 C 227.515625 921.714844 225.167969 920.109375 222.253906 918.496094 C 217.097656 915.457031 213.621094 911.160156 209.742188 906.664062 C 205.484375 901.90625 200.585938 897.90625 195.695312 893.8125 C 191.9375 890.425781 190.089844 887.5625 188.46875 882.730469 C 188.007812 881.121094 187.558594 879.507812 187.148438 877.882812 L 184.796875 877.882812 C 181.953125 873.746094 179.859375 869.210938 177.707031 864.6875 C 176.585938 862.402344 176.585938 862.402344 174.222656 860.257812 C 173.464844 858.273438 172.769531 856.265625 172.140625 854.230469 L 170.960938 850.542969 C 170.160156 847.996094 169.359375 845.449219 168.5625 842.898438 C 166.363281 836.046875 163.960938 829.929688 160.128906 823.820312 C 158.421875 820.445312 158.238281 817.273438 158.167969 813.539062 C 157.90625 810.746094 157.90625 810.746094 156.132812 808.027344 C 153.289062 801.734375 152.722656 795.246094 151.824219 788.433594 L 150.679688 780.199219 L 150.1875 776.53125 C 149.824219 774.039062 149.433594 771.546875 148.960938 769.074219 C 147.226562 759.765625 146.871094 750.800781 146.925781 741.34375 L 146.925781 736.660156 C 146.929688 733.414062 146.9375 730.167969 146.953125 726.921875 C 146.972656 722.792969 146.980469 718.660156 146.976562 714.527344 C 146.976562 710.539062 146.988281 706.554688 147 702.570312 L 147.003906 698.117188 C 147.042969 690.582031 147.257812 683.238281 148.371094 675.777344 L 149.546875 674.601562 C 149.847656 672.832031 150.101562 671.058594 150.308594 669.277344 L 150.722656 665.90625 L 151.160156 662.261719 C 154.230469 638.007812 159.535156 615.335938 166.957031 592.050781 C 168.25 587.949219 169.476562 583.835938 170.695312 579.714844 C 174.414062 567.6875 179.703125 556.40625 185.175781 545.09375 L 186.359375 542.628906 L 187.417969 540.4375 C 188.367188 538.1875 188.964844 535.976562 189.496094 533.59375 L 191.847656 533.59375 L 192.453125 531.613281 C 195.375 522.414062 199.40625 514.507812 204.605469 506.402344 C 206.089844 504.074219 206.089844 504.074219 207.5625 500.839844 C 209.832031 496.480469 212.570312 492.644531 215.421875 488.648438 C 217.703125 485.414062 219.871094 482.125 222.03125 478.808594 C 226.484375 472.066406 231.332031 465.671875 236.238281 459.257812 C 239.355469 455.136719 242.152344 451.113281 244.503906 446.496094 C 246.703125 442.207031 249.25 439.847656 253.015625 436.90625 C 255.859375 434.398438 258.082031 431.613281 260.441406 428.648438 C 265.386719 422.445312 270.746094 416.890625 276.453125 411.390625 L 278.132812 409.648438 C 280.660156 407.203125 283.398438 405.066406 286.144531 402.871094 C 292.578125 397.640625 298.851562 392.476562 303.476562 385.539062 L 305.828125 385.539062 L 305.828125 383.1875 C 307.710938 382.230469 309.597656 381.277344 311.484375 380.324219 L 314.664062 378.714844 C 317.578125 377.3125 317.578125 377.3125 321.101562 376.140625 L 322.277344 372.613281 C 324.582031 371.109375 324.582031 371.109375 327.417969 369.675781 C 331.027344 367.84375 333.566406 366.097656 336.378906 363.214844 C 338.332031 362.421875 340.292969 361.640625 342.253906 360.863281 L 343.429688 358.511719 C 345.265625 357.667969 347.113281 356.839844 348.988281 356.078125 C 352.101562 354.804688 355.160156 353.4375 358.230469 352.066406 C 374.589844 344.871094 390.640625 339.003906 408.058594 335.011719 L 411.171875 334.253906 C 426.90625 330.46875 441.332031 329.71875 457.410156 331.488281 " fill-opacity="1" fill-rule="nonzero"/><path fill="#000000" d="M 711.21875 333.835938 C 732.546875 332.925781 753.632812 333.492188 773.097656 343.25 C 784.65625 349.605469 794.09375 358.015625 800.996094 369.351562 C 807.566406 380.644531 811.660156 392.226562 813.15625 405.222656 L 813.585938 408.914062 C 814.824219 421.058594 814.96875 433.195312 814.988281 445.394531 L 815.003906 448.285156 C 815.027344 458.667969 814.683594 468.929688 813.570312 479.253906 L 813.296875 481.839844 C 812.664062 487.144531 811.445312 492.058594 809.921875 497.167969 C 809.726562 500.242188 809.726562 500.242188 809.921875 503.117188 C 810.03125 507.984375 809.144531 511.34375 807.574219 515.96875 C 807.363281 518.085938 807.1875 520.203125 807.054688 522.328125 C 806.472656 529.914062 805.34375 537.335938 804.046875 544.832031 L 803.414062 548.625 C 801.863281 557.773438 801.863281 557.773438 800.523438 561.796875 C 800.101562 564.65625 799.707031 567.519531 799.347656 570.390625 C 798.667969 575.765625 797.886719 581.125 796.996094 586.472656 C 796.785156 588.257812 796.589844 590.046875 796.410156 591.835938 C 796.011719 595.59375 795.386719 599.214844 794.648438 602.921875 C 794.46875 604.511719 794.296875 606.105469 794.132812 607.699219 C 793.25 615.96875 792.109375 624.277344 789.875 632.300781 C 788.929688 635.859375 788.558594 639.238281 788.328125 642.910156 C 787.585938 652.335938 786.140625 661.632812 784.691406 670.96875 C 784.21875 674.007812 783.761719 677.046875 783.304688 680.085938 C 782.035156 688.40625 780.761719 696.5625 778.480469 704.675781 C 776.765625 710.972656 777.023438 716.394531 778.195312 722.777344 C 791.429688 721.816406 804.390625 720.480469 817.414062 717.929688 C 835.078125 714.597656 854.566406 713.320312 872.152344 717.878906 C 880.78125 721.195312 888.132812 726.492188 894.453125 733.207031 C 903.316406 744.386719 907.472656 758.199219 909.800781 772.128906 C 910.09375 777.417969 909.554688 782.203125 908.628906 787.40625 L 907.988281 791.777344 C 905.097656 810.351562 899.378906 827.144531 888.652344 842.632812 L 886.300781 846.160156 L 882.777344 847.332031 C 881.101562 849.242188 881.101562 849.242188 879.546875 851.59375 C 875.972656 856.511719 872.265625 861.136719 867.5 864.960938 C 865.167969 865.792969 862.820312 866.59375 860.449219 867.308594 L 859.421875 869.476562 C 858.101562 872.007812 858.101562 872.007812 855.664062 873.980469 C 849.25 878 842.621094 881.628906 835.773438 884.859375 L 833.472656 885.953125 C 830.105469 887.496094 827.773438 888.460938 824.023438 888.460938 L 823.109375 890.679688 L 821.675781 893.160156 C 818.449219 894.746094 815.144531 896.144531 811.761719 897.347656 L 808.484375 898.546875 C 774.910156 910.628906 740.738281 919.621094 706.011719 927.707031 C 703.15625 928.375 700.304688 929.042969 697.457031 929.71875 C 622.902344 947.296875 622.902344 947.296875 590.175781 938.515625 C 580.550781 935.617188 570.347656 932.148438 562.5 925.695312 L 559.636719 922.535156 L 559.636719 920.1875 L 557.695312 919.519531 C 553.597656 917.015625 551.222656 913.519531 548.402344 909.683594 L 546.6875 907.496094 C 542.042969 901.230469 539.820312 894.949219 538.488281 887.285156 C 538.015625 882.546875 537.925781 877.871094 537.972656 873.113281 L 538.011719 869.203125 C 538.542969 845.785156 546.898438 826.351562 556.113281 805.03125 L 557.417969 802.003906 C 559.125 798.050781 560.851562 794.109375 562.597656 790.171875 C 564.722656 785.363281 566.738281 780.515625 568.746094 775.65625 C 570.9375 770.390625 573.203125 765.164062 575.46875 759.929688 C 579.390625 750.640625 582.976562 741.308594 586.152344 731.738281 L 587.234375 728.484375 C 589.464844 721.699219 591.457031 714.921875 593.003906 707.941406 C 593.773438 704.917969 594.90625 702.175781 596.066406 699.277344 C 598.199219 692.347656 599.570312 685.371094 600.90625 678.253906 C 601.648438 674.546875 602.621094 670.945312 603.660156 667.308594 C 605.625 660.238281 606.84375 653.132812 607.960938 645.886719 L 608.5625 642.175781 C 609.714844 634.847656 610.5625 627.488281 611.109375 620.09375 C 612.796875 597.550781 612.796875 597.550781 615.515625 587.617188 C 617.136719 580.441406 616.472656 572.117188 615.378906 564.882812 C 614.867188 560.621094 614.867188 560.621094 615.40625 557.277344 C 616.511719 550.191406 616.230469 542.996094 616.238281 535.84375 L 616.25 530.964844 C 616.257812 527.558594 616.257812 524.152344 616.257812 520.742188 C 616.257812 517.289062 616.265625 513.832031 616.28125 510.378906 C 616.472656 485.851562 616.472656 485.851562 614.257812 461.449219 C 613.265625 454.042969 613.09375 446.613281 612.882812 439.152344 L 612.714844 434.65625 C 612.203125 418.542969 613.492188 405.910156 620.742188 391.414062 C 623.121094 387.847656 625.921875 385.023438 628.964844 382.015625 C 630.929688 379.914062 632.875 377.796875 634.820312 375.679688 C 636.820312 373.503906 638.828125 371.335938 640.84375 369.175781 L 642.570312 367.324219 C 645.644531 364.085938 648.277344 361.570312 652.246094 359.46875 C 656.238281 357.320312 660.179688 355.082031 664.066406 352.75 C 677.261719 344.960938 691.347656 338.902344 706.519531 336.1875 L 711.21875 336.1875 Z M 711.21875 333.835938 " fill-opacity="1" fill-rule="nonzero"/><path fill="#fcf4df" d="M 435.082031 533.59375 C 440.144531 534.710938 444.332031 536.269531 448.703125 539.070312 C 452.164062 542.433594 453.503906 545.746094 454.839844 550.265625 L 455.585938 552.769531 C 460.847656 572.054688 456.527344 592.96875 451.753906 611.957031 C 447.921875 625.464844 443.460938 640.828125 435.082031 652.273438 C 433.535156 653.097656 431.96875 653.882812 430.382812 654.625 L 429.429688 657.636719 C 427.453125 663.355469 423.945312 667.859375 419.808594 672.25 L 417.457031 672.25 L 417.457031 674.601562 C 416.125 675.984375 414.769531 677.335938 413.378906 678.664062 C 411.410156 680.648438 409.730469 682.773438 407.984375 684.957031 C 401.722656 692.171875 393.324219 697.78125 384.554688 701.554688 C 377.84375 703.699219 370.140625 704.855469 363.1875 703.464844 C 359.789062 702.175781 357.574219 700.5 355.125 697.84375 C 350.1875 690.8125 348.492188 682.109375 347.722656 673.65625 C 347.585938 669.140625 347.601562 664.652344 347.6875 660.132812 L 347.691406 655.53125 C 347.765625 647.480469 348.234375 640.042969 350.480469 632.300781 L 351.703125 627.855469 C 356.472656 612.359375 361.890625 596.800781 370.457031 582.949219 L 372.804688 582.949219 L 372.804688 579.421875 L 375.15625 579.421875 L 375.578125 577.308594 C 376.792969 573.128906 379.660156 570.054688 382.351562 566.71875 L 384.132812 564.484375 C 388.289062 559.332031 392.582031 554.507812 397.480469 550.046875 L 399.574219 547.980469 C 409.308594 538.765625 421.527344 532.398438 435.082031 533.59375 M 1086.574219 463.386719 C 1092.71875 466.402344 1097.386719 469.332031 1101.703125 474.695312 C 1105.617188 481.949219 1106.554688 488.628906 1106.410156 496.773438 C 1105.734375 503.8125 1103.984375 510.59375 1101.335938 517.144531 C 1098.917969 520.390625 1098.917969 520.390625 1096.636719 523.019531 L 1095.09375 525.8125 C 1092.796875 529.382812 1090.089844 532.039062 1087.019531 534.953125 C 1084.765625 537.136719 1084.765625 537.136719 1082.78125 540.015625 C 1079.652344 543.605469 1076.207031 545.628906 1072.03125 547.769531 L 1069.6875 548.992188 C 1057.121094 555.347656 1044.175781 558.648438 1030.089844 558.453125 C 1023.75 558.035156 1017.773438 556.984375 1012.03125 554.230469 C 1009.683594 552.394531 1009.683594 552.394531 1007.332031 548.871094 C 1004.636719 530.222656 1008.230469 510.914062 1014.574219 493.390625 C 1018.390625 484.972656 1024.269531 477.925781 1031.714844 472.480469 C 1048.199219 461.792969 1067.207031 456.855469 1086.574219 463.386719 M 395.132812 369.089844 C 394.84375 371.144531 394.84375 371.144531 393.957031 373.789062 C 387.300781 381.277344 378.691406 387.078125 370.660156 392.992188 C 364.507812 397.550781 358.695312 402.394531 352.933594 407.433594 C 348.421875 411.359375 343.796875 415.0625 339.023438 418.660156 C 333.347656 422.945312 328.03125 427.492188 322.800781 432.300781 C 318.828125 435.882812 314.671875 439.21875 310.511719 442.585938 C 306.523438 445.859375 302.613281 449.21875 298.703125 452.589844 C 292.195312 458.203125 285.5625 463.664062 278.800781 468.96875 L 274.890625 472.113281 L 270.796875 475.359375 L 268.875 476.914062 C 265.992188 479.175781 263.6875 480.671875 260.132812 481.640625 L 257.652344 481.894531 C 257.363281 479.371094 257.363281 479.371094 257.652344 476.019531 C 259.589844 472.8125 259.589844 472.8125 262.277344 469.410156 L 263.726562 467.550781 C 265.214844 465.664062 266.714844 463.785156 268.226562 461.917969 L 270.828125 458.621094 C 276.476562 451.574219 282.457031 444.886719 288.605469 438.277344 C 292.261719 434.308594 295.792969 430.242188 299.296875 426.132812 L 301.128906 424.316406 L 303.476562 424.316406 L 303.476562 421.964844 L 305.679688 421.746094 L 308.175781 420.789062 L 309.132812 418.222656 C 310.847656 414.152344 313.121094 412.324219 316.460938 409.546875 C 319.085938 407.621094 321.832031 406.007812 324.628906 404.339844 C 326.546875 403.007812 328.457031 401.664062 330.355469 400.300781 C 333.757812 397.890625 337.125 395.613281 340.785156 393.617188 C 344.679688 391.542969 344.679688 391.542969 347.835938 388.550781 C 351.832031 385.046875 356.441406 383.222656 361.3125 381.203125 C 364.699219 379.71875 364.699219 379.71875 367.914062 377.335938 C 372.222656 374.585938 376.308594 373.167969 381.175781 371.734375 L 383.679688 370.949219 C 387.707031 369.722656 390.882812 369.089844 395.132812 369.089844 M 895.703125 393.765625 L 899.226562 393.765625 C 899.386719 400.304688 898.925781 406.363281 897.613281 412.785156 L 897.011719 415.71875 C 892.015625 439.074219 885.960938 462.726562 877.636719 485.125 L 876.535156 488.152344 C 875.476562 490.835938 875.476562 490.835938 873.375 494.820312 C 870.894531 495.65625 870.894531 495.65625 868.675781 495.992188 C 868.992188 465.53125 869.472656 434.34375 885.125 407.128906 C 891.5625 397.265625 891.5625 397.265625 895.703125 393.765625 " fill-opacity="1" fill-rule="nonzero"/><path fill="#fefef5" d="M 643.066406 405.515625 L 648.941406 405.515625 C 651.378906 410.390625 650.335938 416.757812 650.335938 422.113281 L 650.382812 426.085938 C 650.394531 433.367188 649.921875 439.675781 647.765625 446.640625 L 643.066406 446.640625 C 640.132812 438.710938 639.160156 431.164062 639.101562 422.773438 L 639.050781 420.054688 C 639.085938 415.488281 639.492188 412.679688 641.332031 408.402344 Z M 643.066406 405.515625 " fill-opacity="1" fill-rule="nonzero"/><path fill="#fdfdf4" d="M 1111.910156 290.359375 C 1119.402344 292.566406 1126.84375 294.890625 1134.238281 297.410156 L 1130.710938 299.761719 C 1127.789062 299.558594 1127.789062 299.558594 1124.46875 298.878906 L 1121.007812 298.171875 C 1117.496094 297.34375 1114.109375 296.335938 1110.734375 295.058594 Z M 1111.910156 290.359375 " fill-opacity="1" fill-rule="nonzero"/><path fill="#fefef5" d="M 220.050781 477.191406 L 222.398438 477.191406 C 220.46875 482.804688 217.386719 487.527344 214.171875 492.46875 L 210.648438 488.945312 L 214.171875 484.242188 L 216.011719 481.746094 C 217.699219 479.542969 217.699219 479.542969 220.050781 477.191406 M 268.226562 416.089844 L 270.574219 416.089844 C 268.972656 419.605469 267.109375 422.304688 264.554688 425.195312 L 262.636719 427.382812 L 261.175781 429.015625 L 258.824219 426.664062 C 260.121094 423.167969 261.914062 421.117188 264.699219 418.734375 Z M 225.925781 466.617188 L 229.449219 466.617188 C 228.746094 470.5625 227.28125 472.9375 224.75 476.019531 L 220.050781 474.84375 L 222.398438 471.316406 L 224.089844 468.746094 Z M 708.871094 333.835938 L 710.042969 336.1875 L 698.292969 338.539062 L 697.117188 335.011719 C 701.121094 334.097656 704.765625 333.71875 708.871094 333.835938 " fill-opacity="1" fill-rule="nonzero"/></svg>