<svg xmlns="http://www.w3.org/2000/svg" xmlns:xlink="http://www.w3.org/1999/xlink" width="2000" zoomAndPan="magnify" viewBox="0 0 1500 1499.999933" height="2000" preserveAspectRatio="xMidYMid meet" version="1.0"><defs><g/><clipPath id="0b11836c3b"><path d="M 106.011719 428.007812 L 1393.988281 428.007812 L 1393.988281 1071.992188 L 106.011719 1071.992188 Z M 106.011719 428.007812 " clip-rule="nonzero"/></clipPath><clipPath id="ce1446b7bd"><path d="M 1071.992188 428.007812 C 1249.824219 428.007812 1393.988281 572.167969 1393.988281 750 C 1393.988281 927.832031 1249.824219 1071.992188 1071.992188 1071.992188 L 428.007812 1071.992188 C 250.175781 1071.992188 106.011719 927.832031 106.011719 750 C 106.011719 572.167969 250.175781 428.007812 428.007812 428.007812 Z M 1071.992188 428.007812 " clip-rule="nonzero"/></clipPath><clipPath id="03234c4d56"><path d="M 0.0117188 0.0078125 L 1287.988281 0.0078125 L 1287.988281 643.992188 L 0.0117188 643.992188 Z M 0.0117188 0.0078125 " clip-rule="nonzero"/></clipPath><clipPath id="185758d2e8"><path d="M 965.992188 0.0078125 C 1143.824219 0.0078125 1287.988281 144.167969 1287.988281 322 C 1287.988281 499.832031 1143.824219 643.992188 965.992188 643.992188 L 322.007812 643.992188 C 144.175781 643.992188 0.0117188 499.832031 0.0117188 322 C 0.0117188 144.167969 144.175781 0.0078125 322.007812 0.0078125 Z M 965.992188 0.0078125 " clip-rule="nonzero"/></clipPath><clipPath id="cd376a9543"><rect x="0" width="1288" y="0" height="644"/></clipPath><clipPath id="16ae1f3b08"><path d="M 106.019531 428.007812 L 1393.761719 428.007812 L 1393.761719 1071.988281 L 106.019531 1071.988281 Z M 106.019531 428.007812 " clip-rule="nonzero"/></clipPath><clipPath id="468c99b049"><path d="M 1071.988281 428.007812 C 1249.820312 428.007812 1393.980469 572.167969 1393.980469 749.996094 C 1393.980469 927.828125 1249.820312 1071.988281 1071.988281 1071.988281 L 428.007812 1071.988281 C 250.179688 1071.988281 106.019531 927.828125 106.019531 749.996094 C 106.019531 572.167969 250.179688 428.007812 428.007812 428.007812 Z M 1071.988281 428.007812 " clip-rule="nonzero"/></clipPath><clipPath id="743816416a"><rect x="0" width="701" y="0" height="166"/></clipPath><clipPath id="569e433832"><path d="M 247.957031 737.953125 L 1301 737.953125 L 1301 901.351562 L 247.957031 901.351562 Z M 247.957031 737.953125 " clip-rule="nonzero"/></clipPath><clipPath id="c36fbcff4f"><path d="M 283.207031 737.953125 L 1265.511719 737.953125 C 1284.980469 737.953125 1300.761719 753.738281 1300.761719 773.203125 L 1300.761719 866.101562 C 1300.761719 885.570312 1284.980469 901.351562 1265.511719 901.351562 L 283.207031 901.351562 C 263.738281 901.351562 247.957031 885.570312 247.957031 866.101562 L 247.957031 773.203125 C 247.957031 753.738281 263.738281 737.953125 283.207031 737.953125 Z M 283.207031 737.953125 " clip-rule="nonzero"/></clipPath><clipPath id="5a5759fdc2"><path d="M 0.957031 0.953125 L 1053.800781 0.953125 L 1053.800781 164.351562 L 0.957031 164.351562 Z M 0.957031 0.953125 " clip-rule="nonzero"/></clipPath><clipPath id="eca9ac83d2"><path d="M 36.207031 0.953125 L 1018.511719 0.953125 C 1037.980469 0.953125 1053.761719 16.738281 1053.761719 36.203125 L 1053.761719 129.101562 C 1053.761719 148.570312 1037.980469 164.351562 1018.511719 164.351562 L 36.207031 164.351562 C 16.738281 164.351562 0.957031 148.570312 0.957031 129.101562 L 0.957031 36.203125 C 0.957031 16.738281 16.738281 0.953125 36.207031 0.953125 Z M 36.207031 0.953125 " clip-rule="nonzero"/></clipPath><clipPath id="51fe89fd7f"><rect x="0" width="1054" y="0" height="165"/></clipPath><clipPath id="034e69a598"><rect x="0" width="544" y="0" height="119"/></clipPath><clipPath id="1cfa788aa2"><rect x="0" width="548" y="0" height="130"/></clipPath><clipPath id="cca1b0a1ce"><path d="M 456 445.132812 L 1043 445.132812 L 1043 784 L 456 784 Z M 456 445.132812 " clip-rule="nonzero"/></clipPath></defs><g clip-path="url(#0b11836c3b)"><g clip-path="url(#ce1446b7bd)"><g transform="matrix(1, 0, 0, 1, 106, 428)"><g clip-path="url(#cd376a9543)"><g clip-path="url(#03234c4d56)"><g clip-path="url(#185758d2e8)"><path fill="#f7f2e4" d="M 0.0117188 0.0078125 L 1287.988281 0.0078125 L 1287.988281 643.992188 L 0.0117188 643.992188 Z M 0.0117188 0.0078125 " fill-opacity="1" fill-rule="nonzero"/></g></g></g></g></g></g><g clip-path="url(#16ae1f3b08)"><g clip-path="url(#468c99b049)"><path stroke-linecap="butt" transform="matrix(0.75, 0, 0, 0.75, 106.013146, 428.006511)" fill="none" stroke-linejoin="miter" d="M 1287.966958 0.00173515 C 1525.076354 0.00173515 1717.289912 192.215293 1717.289912 429.31948 C 1717.289912 666.428876 1525.076354 858.642434 1287.966958 858.642434 L 429.326259 858.642434 C 192.222072 858.642434 0.00851391 666.428876 0.00851391 429.31948 C 0.00851391 192.215293 192.222072 0.00173515 429.326259 0.00173515 Z M 1287.966958 0.00173515 " stroke="#000000" stroke-width="26" stroke-opacity="1" stroke-miterlimit="4"/></g></g><path stroke-linecap="butt" transform="matrix(0.75, 0, 0, 0.75, 269.109884, 796.444255)" fill="none" stroke-linejoin="miter" d="M -0.000678361 60.001415 L 1282.374432 60.001415 " stroke="#000000" stroke-width="120" stroke-opacity="1" stroke-miterlimit="4"/><g transform="matrix(1, 0, 0, 1, 405, 758)"><g clip-path="url(#743816416a)"><g fill="#fbf0dd" fill-opacity="1"><g transform="translate(1.567793, 125.444778)"><g><path d="M 8.59375 0 L 8.59375 -88.46875 L 41.078125 -88.46875 C 48.148438 -88.46875 53.984375 -87.265625 58.578125 -84.859375 C 63.171875 -82.460938 66.601562 -79.21875 68.875 -75.125 C 71.144531 -71.039062 72.28125 -66.515625 72.28125 -61.546875 C 72.28125 -56.148438 70.867188 -51.21875 68.046875 -46.75 C 65.222656 -42.289062 60.820312 -39.050781 54.84375 -37.03125 L 73.171875 0 L 54.59375 0 L 38.171875 -34.875 L 24.765625 -34.875 L 24.765625 0 Z M 24.765625 -46.765625 L 40.0625 -46.765625 C 45.457031 -46.765625 49.414062 -48.066406 51.9375 -50.671875 C 54.46875 -53.285156 55.734375 -56.742188 55.734375 -61.046875 C 55.734375 -65.253906 54.488281 -68.617188 52 -71.140625 C 49.519531 -73.671875 45.5 -74.9375 39.9375 -74.9375 L 24.765625 -74.9375 Z M 24.765625 -46.765625 "/></g></g></g><g fill="#fbf0dd" fill-opacity="1"><g transform="translate(91.164717, 125.444778)"><g><path d="M 42.71875 1.515625 C 36.226562 1.515625 30.367188 0.234375 25.140625 -2.328125 C 19.921875 -4.898438 15.773438 -8.796875 12.703125 -14.015625 C 9.628906 -19.242188 8.09375 -25.863281 8.09375 -33.875 L 8.09375 -88.46875 L 24.265625 -88.46875 L 24.265625 -33.734375 C 24.265625 -26.828125 25.925781 -21.6875 29.25 -18.3125 C 32.582031 -14.945312 37.195312 -13.265625 43.09375 -13.265625 C 48.90625 -13.265625 53.492188 -14.945312 56.859375 -18.3125 C 60.234375 -21.6875 61.921875 -26.828125 61.921875 -33.734375 L 61.921875 -88.46875 L 78.09375 -88.46875 L 78.09375 -33.875 C 78.09375 -25.863281 76.492188 -19.242188 73.296875 -14.015625 C 70.097656 -8.796875 65.820312 -4.898438 60.46875 -2.328125 C 55.125 0.234375 49.207031 1.515625 42.71875 1.515625 Z M 42.71875 1.515625 "/></g></g></g><g fill="#fbf0dd" fill-opacity="1"><g transform="translate(188.091004, 125.444778)"><g><path d="M 8.59375 0 L 8.59375 -88.46875 L 24.765625 -88.46875 L 66.34375 -26.15625 L 66.34375 -88.46875 L 82.515625 -88.46875 L 82.515625 0 L 66.34375 0 L 24.765625 -62.171875 L 24.765625 0 Z M 8.59375 0 "/></g></g></g><g fill="#fbf0dd" fill-opacity="1"><g transform="translate(290.072012, 125.444778)"><g/></g></g><g fill="#fbf0dd" fill-opacity="1"><g transform="translate(331.017162, 125.444778)"><g><path d="M 48.65625 1.515625 C 39.726562 1.515625 32.0625 -0.398438 25.65625 -4.234375 C 19.25 -8.066406 14.316406 -13.414062 10.859375 -20.28125 C 7.410156 -27.144531 5.6875 -35.085938 5.6875 -44.109375 C 5.6875 -53.117188 7.410156 -61.078125 10.859375 -67.984375 C 14.316406 -74.898438 19.25 -80.296875 25.65625 -84.171875 C 32.0625 -88.046875 39.726562 -89.984375 48.65625 -89.984375 C 59.269531 -89.984375 67.96875 -87.347656 74.75 -82.078125 C 81.53125 -76.816406 85.765625 -69.425781 87.453125 -59.90625 L 69.625 -59.90625 C 68.53125 -64.707031 66.191406 -68.472656 62.609375 -71.203125 C 59.035156 -73.941406 54.300781 -75.3125 48.40625 -75.3125 C 40.226562 -75.3125 33.820312 -72.53125 29.1875 -66.96875 C 24.550781 -61.414062 22.234375 -53.796875 22.234375 -44.109375 C 22.234375 -34.421875 24.550781 -26.816406 29.1875 -21.296875 C 33.820312 -15.773438 40.226562 -13.015625 48.40625 -13.015625 C 54.300781 -13.015625 59.035156 -14.296875 62.609375 -16.859375 C 66.191406 -19.429688 68.53125 -22.992188 69.625 -27.546875 L 87.453125 -27.546875 C 85.765625 -18.453125 81.53125 -11.332031 74.75 -6.1875 C 67.96875 -1.050781 59.269531 1.515625 48.65625 1.515625 Z M 48.65625 1.515625 "/></g></g></g><g fill="#fbf0dd" fill-opacity="1"><g transform="translate(435.020059, 125.444778)"><g><path d="M 8.59375 0 L 8.59375 -88.46875 L 24.765625 -88.46875 L 24.765625 -12.640625 L 63.953125 -12.640625 L 63.953125 0 Z M 8.59375 0 "/></g></g></g><g fill="#fbf0dd" fill-opacity="1"><g transform="translate(511.727034, 125.444778)"><g><path d="M 42.71875 1.515625 C 36.226562 1.515625 30.367188 0.234375 25.140625 -2.328125 C 19.921875 -4.898438 15.773438 -8.796875 12.703125 -14.015625 C 9.628906 -19.242188 8.09375 -25.863281 8.09375 -33.875 L 8.09375 -88.46875 L 24.265625 -88.46875 L 24.265625 -33.734375 C 24.265625 -26.828125 25.925781 -21.6875 29.25 -18.3125 C 32.582031 -14.945312 37.195312 -13.265625 43.09375 -13.265625 C 48.90625 -13.265625 53.492188 -14.945312 56.859375 -18.3125 C 60.234375 -21.6875 61.921875 -26.828125 61.921875 -33.734375 L 61.921875 -88.46875 L 78.09375 -88.46875 L 78.09375 -33.875 C 78.09375 -25.863281 76.492188 -19.242188 73.296875 -14.015625 C 70.097656 -8.796875 65.820312 -4.898438 60.46875 -2.328125 C 55.125 0.234375 49.207031 1.515625 42.71875 1.515625 Z M 42.71875 1.515625 "/></g></g></g><g fill="#fbf0dd" fill-opacity="1"><g transform="translate(608.653308, 125.444778)"><g><path d="M 8.59375 0 L 8.59375 -88.46875 L 44.109375 -88.46875 C 53.285156 -88.46875 60.296875 -86.335938 65.140625 -82.078125 C 69.984375 -77.828125 72.40625 -72.375 72.40625 -65.71875 C 72.40625 -60.15625 70.910156 -55.707031 67.921875 -52.375 C 64.929688 -49.050781 61.289062 -46.800781 57 -45.625 C 62.050781 -44.613281 66.21875 -42.101562 69.5 -38.09375 C 72.789062 -34.09375 74.4375 -29.441406 74.4375 -24.140625 C 74.4375 -17.148438 71.90625 -11.378906 66.84375 -6.828125 C 61.789062 -2.273438 54.632812 0 45.375 0 Z M 24.765625 -51.3125 L 41.703125 -51.3125 C 46.253906 -51.3125 49.75 -52.363281 52.1875 -54.46875 C 54.632812 -56.570312 55.859375 -59.5625 55.859375 -63.4375 C 55.859375 -67.144531 54.65625 -70.070312 52.25 -72.21875 C 49.851562 -74.375 46.253906 -75.453125 41.453125 -75.453125 L 24.765625 -75.453125 Z M 24.765625 -13.140625 L 42.84375 -13.140625 C 47.644531 -13.140625 51.367188 -14.253906 54.015625 -16.484375 C 56.671875 -18.722656 58 -21.863281 58 -25.90625 C 58 -30.03125 56.609375 -33.269531 53.828125 -35.625 C 51.054688 -37.988281 47.3125 -39.171875 42.59375 -39.171875 L 24.765625 -39.171875 Z M 24.765625 -13.140625 "/></g></g></g></g></g><g clip-path="url(#569e433832)"><g clip-path="url(#c36fbcff4f)"><g transform="matrix(1, 0, 0, 1, 247, 737)"><g clip-path="url(#51fe89fd7f)"><g clip-path="url(#5a5759fdc2)"><g clip-path="url(#eca9ac83d2)"><path fill="#000000" d="M 0.957031 0.953125 L 1053.464844 0.953125 L 1053.464844 164.351562 L 0.957031 164.351562 Z M 0.957031 0.953125 " fill-opacity="1" fill-rule="nonzero"/></g></g></g></g></g></g><g transform="matrix(1, 0, 0, 1, 485, 921)"><g clip-path="url(#034e69a598)"><g fill="#000000" fill-opacity="1"><g transform="translate(1.315298, 89.804877)"><g><path d="M 6.15625 0 L 6.15625 -63.3125 L 47.484375 -63.3125 L 47.484375 -53.984375 L 17.71875 -53.984375 L 17.71875 -36.625 L 44.765625 -36.625 L 44.765625 -27.578125 L 17.71875 -27.578125 L 17.71875 -9.3125 L 47.484375 -9.3125 L 47.484375 0 Z M 6.15625 0 "/></g></g></g><g fill="#000000" fill-opacity="1"><g transform="translate(67.154612, 89.804877)"><g><path d="M 27.765625 1.078125 C 23.117188 1.078125 19.015625 0.28125 15.453125 -1.3125 C 11.898438 -2.90625 9.097656 -5.191406 7.046875 -8.171875 C 5.003906 -11.160156 3.953125 -14.796875 3.890625 -19.078125 L 16.09375 -19.078125 C 16.21875 -16.128906 17.289062 -13.644531 19.3125 -11.625 C 21.332031 -9.601562 24.117188 -8.59375 27.671875 -8.59375 C 30.742188 -8.59375 33.1875 -9.328125 35 -10.796875 C 36.8125 -12.273438 37.71875 -14.253906 37.71875 -16.734375 C 37.71875 -19.328125 36.914062 -21.34375 35.3125 -22.78125 C 33.71875 -24.226562 31.59375 -25.40625 28.9375 -26.3125 C 26.28125 -27.21875 23.445312 -28.1875 20.4375 -29.21875 C 15.550781 -30.90625 11.828125 -33.070312 9.265625 -35.71875 C 6.703125 -38.375 5.421875 -41.898438 5.421875 -46.296875 C 5.359375 -50.035156 6.25 -53.242188 8.09375 -55.921875 C 9.9375 -58.609375 12.453125 -60.691406 15.640625 -62.171875 C 18.835938 -63.648438 22.515625 -64.390625 26.671875 -64.390625 C 30.898438 -64.390625 34.625 -63.632812 37.84375 -62.125 C 41.070312 -60.625 43.601562 -58.515625 45.4375 -55.796875 C 47.28125 -53.085938 48.265625 -49.863281 48.390625 -46.125 L 36 -46.125 C 35.9375 -48.351562 35.070312 -50.328125 33.40625 -52.046875 C 31.75 -53.765625 29.445312 -54.625 26.5 -54.625 C 23.96875 -54.6875 21.84375 -54.066406 20.125 -52.765625 C 18.40625 -51.472656 17.546875 -49.59375 17.546875 -47.125 C 17.546875 -45.007812 18.207031 -43.332031 19.53125 -42.09375 C 20.863281 -40.863281 22.671875 -39.828125 24.953125 -38.984375 C 27.242188 -38.140625 29.867188 -37.234375 32.828125 -36.265625 C 35.960938 -35.179688 38.828125 -33.914062 41.421875 -32.46875 C 44.015625 -31.019531 46.09375 -29.101562 47.65625 -26.71875 C 49.226562 -24.34375 50.015625 -21.285156 50.015625 -17.546875 C 50.015625 -14.234375 49.171875 -11.15625 47.484375 -8.3125 C 45.796875 -5.476562 43.289062 -3.203125 39.96875 -1.484375 C 36.65625 0.222656 32.585938 1.078125 27.765625 1.078125 Z M 27.765625 1.078125 "/></g></g></g><g fill="#000000" fill-opacity="1"><g transform="translate(133.89829, 89.804877)"><g><path d="M 20.890625 0 L 20.890625 -53.984375 L 2.4375 -53.984375 L 2.4375 -63.3125 L 51 -63.3125 L 51 -53.984375 L 32.46875 -53.984375 L 32.46875 0 Z M 20.890625 0 "/></g></g></g><g fill="#000000" fill-opacity="1"><g transform="translate(193.678213, 89.804877)"><g><path d="M 10.859375 0.640625 C 8.742188 0.640625 7.007812 -0.0195312 5.65625 -1.34375 C 4.300781 -2.675781 3.625 -4.28125 3.625 -6.15625 C 3.625 -8.082031 4.300781 -9.707031 5.65625 -11.03125 C 7.007812 -12.351562 8.742188 -13.015625 10.859375 -13.015625 C 12.960938 -13.015625 14.691406 -12.351562 16.046875 -11.03125 C 17.410156 -9.707031 18.09375 -8.082031 18.09375 -6.15625 C 18.09375 -4.28125 17.410156 -2.675781 16.046875 -1.34375 C 14.691406 -0.0195312 12.960938 0.640625 10.859375 0.640625 Z M 10.859375 0.640625 "/></g></g></g><g fill="#000000" fill-opacity="1"><g transform="translate(228.949708, 89.804877)"><g/></g></g><g fill="#000000" fill-opacity="1"><g transform="translate(264.040333, 89.804877)"><g><path d="M 4.609375 0 L 4.609375 -8.40625 C 8.472656 -11.601562 12.226562 -14.769531 15.875 -17.90625 C 19.519531 -21.039062 22.773438 -24.144531 25.640625 -27.21875 C 28.503906 -30.289062 30.796875 -33.289062 32.515625 -36.21875 C 34.234375 -39.144531 35.09375 -41.992188 35.09375 -44.765625 C 35.09375 -47.359375 34.382812 -49.648438 32.96875 -51.640625 C 31.550781 -53.628906 29.210938 -54.625 25.953125 -54.625 C 22.640625 -54.625 20.140625 -53.535156 18.453125 -51.359375 C 16.765625 -49.191406 15.921875 -46.570312 15.921875 -43.5 L 4.703125 -43.5 C 4.828125 -48.144531 5.851562 -52.019531 7.78125 -55.125 C 9.707031 -58.226562 12.269531 -60.546875 15.46875 -62.078125 C 18.664062 -63.617188 22.253906 -64.390625 26.234375 -64.390625 C 32.679688 -64.390625 37.695312 -62.625 41.28125 -59.09375 C 44.875 -55.570312 46.671875 -51.007812 46.671875 -45.40625 C 46.671875 -41.90625 45.867188 -38.492188 44.265625 -35.171875 C 42.671875 -31.859375 40.578125 -28.664062 37.984375 -25.59375 C 35.390625 -22.519531 32.582031 -19.640625 29.5625 -16.953125 C 26.550781 -14.273438 23.628906 -11.789062 20.796875 -9.5 L 48.203125 -9.5 L 48.203125 0 Z M 4.609375 0 "/></g></g></g><g fill="#000000" fill-opacity="1"><g transform="translate(328.794402, 89.804877)"><g><path d="M 32.109375 1.078125 C 26.253906 1.078125 21.25 -0.289062 17.09375 -3.03125 C 12.9375 -5.769531 9.722656 -9.597656 7.453125 -14.515625 C 5.191406 -19.429688 4.0625 -25.144531 4.0625 -31.65625 C 4.0625 -38.101562 5.191406 -43.796875 7.453125 -48.734375 C 9.722656 -53.679688 12.9375 -57.523438 17.09375 -60.265625 C 21.25 -63.015625 26.253906 -64.390625 32.109375 -64.390625 C 37.953125 -64.390625 42.953125 -63.015625 47.109375 -60.265625 C 51.273438 -57.523438 54.488281 -53.679688 56.75 -48.734375 C 59.007812 -43.796875 60.140625 -38.101562 60.140625 -31.65625 C 60.140625 -25.144531 59.007812 -19.429688 56.75 -14.515625 C 54.488281 -9.597656 51.273438 -5.769531 47.109375 -3.03125 C 42.953125 -0.289062 37.953125 1.078125 32.109375 1.078125 Z M 32.109375 -9.3125 C 36.867188 -9.3125 40.753906 -11.300781 43.765625 -15.28125 C 46.785156 -19.257812 48.296875 -24.71875 48.296875 -31.65625 C 48.296875 -38.582031 46.785156 -44.035156 43.765625 -48.015625 C 40.753906 -51.992188 36.867188 -53.984375 32.109375 -53.984375 C 27.285156 -53.984375 23.378906 -51.992188 20.390625 -48.015625 C 17.410156 -44.035156 15.921875 -38.582031 15.921875 -31.65625 C 15.921875 -24.71875 17.410156 -19.257812 20.390625 -15.28125 C 23.378906 -11.300781 27.285156 -9.3125 32.109375 -9.3125 Z M 32.109375 -9.3125 "/></g></g></g><g fill="#000000" fill-opacity="1"><g transform="translate(406.119236, 89.804877)"><g><path d="M 4.609375 0 L 4.609375 -8.40625 C 8.472656 -11.601562 12.226562 -14.769531 15.875 -17.90625 C 19.519531 -21.039062 22.773438 -24.144531 25.640625 -27.21875 C 28.503906 -30.289062 30.796875 -33.289062 32.515625 -36.21875 C 34.234375 -39.144531 35.09375 -41.992188 35.09375 -44.765625 C 35.09375 -47.359375 34.382812 -49.648438 32.96875 -51.640625 C 31.550781 -53.628906 29.210938 -54.625 25.953125 -54.625 C 22.640625 -54.625 20.140625 -53.535156 18.453125 -51.359375 C 16.765625 -49.191406 15.921875 -46.570312 15.921875 -43.5 L 4.703125 -43.5 C 4.828125 -48.144531 5.851562 -52.019531 7.78125 -55.125 C 9.707031 -58.226562 12.269531 -60.546875 15.46875 -62.078125 C 18.664062 -63.617188 22.253906 -64.390625 26.234375 -64.390625 C 32.679688 -64.390625 37.695312 -62.625 41.28125 -59.09375 C 44.875 -55.570312 46.671875 -51.007812 46.671875 -45.40625 C 46.671875 -41.90625 45.867188 -38.492188 44.265625 -35.171875 C 42.671875 -31.859375 40.578125 -28.664062 37.984375 -25.59375 C 35.390625 -22.519531 32.582031 -19.640625 29.5625 -16.953125 C 26.550781 -14.273438 23.628906 -11.789062 20.796875 -9.5 L 48.203125 -9.5 L 48.203125 0 Z M 4.609375 0 "/></g></g></g><g fill="#000000" fill-opacity="1"><g transform="translate(471.325503, 89.804877)"><g><path d="M 29.9375 1.078125 C 25.175781 1.078125 21.164062 0.207031 17.90625 -1.53125 C 14.644531 -3.28125 12.019531 -5.628906 10.03125 -8.578125 C 8.039062 -11.535156 6.609375 -14.820312 5.734375 -18.4375 C 4.867188 -22.0625 4.4375 -25.773438 4.4375 -29.578125 C 4.4375 -36.628906 5.429688 -42.757812 7.421875 -47.96875 C 9.410156 -53.1875 12.269531 -57.226562 16 -60.09375 C 19.738281 -62.957031 24.265625 -64.390625 29.578125 -64.390625 C 33.910156 -64.390625 37.597656 -63.53125 40.640625 -61.8125 C 43.691406 -60.09375 46.0625 -57.847656 47.75 -55.078125 C 49.4375 -52.304688 50.429688 -49.320312 50.734375 -46.125 L 39.96875 -46.125 C 39.425781 -48.894531 38.25 -51.035156 36.4375 -52.546875 C 34.632812 -54.054688 32.316406 -54.8125 29.484375 -54.8125 C 25.441406 -54.8125 22.179688 -52.957031 19.703125 -49.25 C 17.234375 -45.539062 15.910156 -39.882812 15.734375 -32.28125 C 17.179688 -34.757812 19.351562 -36.8125 22.25 -38.4375 C 25.144531 -40.0625 28.367188 -40.875 31.921875 -40.875 C 35.421875 -40.875 38.707031 -40.03125 41.78125 -38.34375 C 44.851562 -36.65625 47.335938 -34.273438 49.234375 -31.203125 C 51.140625 -28.128906 52.09375 -24.507812 52.09375 -20.34375 C 52.09375 -16.550781 51.171875 -13.023438 49.328125 -9.765625 C 47.492188 -6.515625 44.898438 -3.894531 41.546875 -1.90625 C 38.203125 0.0820312 34.332031 1.078125 29.9375 1.078125 Z M 29.296875 -8.859375 C 32.671875 -8.859375 35.457031 -9.898438 37.65625 -11.984375 C 39.863281 -14.066406 40.96875 -16.703125 40.96875 -19.890625 C 40.96875 -23.265625 39.851562 -25.976562 37.625 -28.03125 C 35.394531 -30.082031 32.5625 -31.109375 29.125 -31.109375 C 26.894531 -31.109375 24.890625 -30.609375 23.109375 -29.609375 C 21.328125 -28.617188 19.921875 -27.296875 18.890625 -25.640625 C 17.867188 -23.984375 17.359375 -22.128906 17.359375 -20.078125 C 17.359375 -16.816406 18.488281 -14.128906 20.75 -12.015625 C 23.007812 -9.910156 25.859375 -8.859375 29.296875 -8.859375 Z M 29.296875 -8.859375 "/></g></g></g></g></g><g transform="matrix(1, 0, 0, 1, 480, 780)"><g clip-path="url(#1cfa788aa2)"><g fill="#f7f3e4" fill-opacity="1"><g transform="translate(1.521197, 98.235833)"><g><path d="M 6.71875 0 L 6.71875 -69.15625 L 32.109375 -69.15625 C 37.640625 -69.15625 42.195312 -68.21875 45.78125 -66.34375 C 49.375 -64.46875 52.0625 -61.929688 53.84375 -58.734375 C 55.625 -55.535156 56.515625 -51.992188 56.515625 -48.109375 C 56.515625 -43.898438 55.410156 -40.046875 53.203125 -36.546875 C 50.992188 -33.054688 47.550781 -30.523438 42.875 -28.953125 L 57.203125 0 L 42.6875 0 L 29.84375 -27.265625 L 19.359375 -27.265625 L 19.359375 0 Z M 19.359375 -36.5625 L 31.3125 -36.5625 C 35.53125 -36.5625 38.625 -37.582031 40.59375 -39.625 C 42.570312 -41.664062 43.5625 -44.363281 43.5625 -47.71875 C 43.5625 -51.007812 42.585938 -53.644531 40.640625 -55.625 C 38.703125 -57.601562 35.5625 -58.59375 31.21875 -58.59375 L 19.359375 -58.59375 Z M 19.359375 -36.5625 "/></g></g></g><g fill="#f7f3e4" fill-opacity="1"><g transform="translate(71.563767, 98.235833)"><g><path d="M 33.390625 1.1875 C 28.316406 1.1875 23.738281 0.179688 19.65625 -1.828125 C 15.570312 -3.835938 12.328125 -6.882812 9.921875 -10.96875 C 7.523438 -15.050781 6.328125 -20.222656 6.328125 -26.484375 L 6.328125 -69.15625 L 18.96875 -69.15625 L 18.96875 -26.375 C 18.96875 -20.976562 20.269531 -16.960938 22.875 -14.328125 C 25.476562 -11.691406 29.082031 -10.375 33.6875 -10.375 C 38.226562 -10.375 41.816406 -11.691406 44.453125 -14.328125 C 47.085938 -16.960938 48.40625 -20.976562 48.40625 -26.375 L 48.40625 -69.15625 L 61.0625 -69.15625 L 61.0625 -26.484375 C 61.0625 -20.222656 59.804688 -15.050781 57.296875 -10.96875 C 54.796875 -6.882812 51.453125 -3.835938 47.265625 -1.828125 C 43.085938 0.179688 38.460938 1.1875 33.390625 1.1875 Z M 33.390625 1.1875 "/></g></g></g><g fill="#f7f3e4" fill-opacity="1"><g transform="translate(147.33608, 98.235833)"><g><path d="M 6.71875 0 L 6.71875 -69.15625 L 19.359375 -69.15625 L 51.875 -20.453125 L 51.875 -69.15625 L 64.515625 -69.15625 L 64.515625 0 L 51.875 0 L 19.359375 -48.609375 L 19.359375 0 Z M 6.71875 0 "/></g></g></g><g fill="#f7f3e4" fill-opacity="1"><g transform="translate(227.059931, 98.235833)"><g/></g></g><g fill="#f7f3e4" fill-opacity="1"><g transform="translate(259.068882, 98.235833)"><g><path d="M 38.03125 1.1875 C 31.050781 1.1875 25.054688 -0.3125 20.046875 -3.3125 C 15.046875 -6.3125 11.195312 -10.492188 8.5 -15.859375 C 5.800781 -21.222656 4.453125 -27.429688 4.453125 -34.484375 C 4.453125 -41.523438 5.800781 -47.742188 8.5 -53.140625 C 11.195312 -58.546875 15.046875 -62.765625 20.046875 -65.796875 C 25.054688 -68.828125 31.050781 -70.34375 38.03125 -70.34375 C 46.332031 -70.34375 53.132812 -68.285156 58.4375 -64.171875 C 63.738281 -60.054688 67.050781 -54.273438 68.375 -46.828125 L 54.4375 -46.828125 C 53.582031 -50.585938 51.753906 -53.535156 48.953125 -55.671875 C 46.148438 -57.816406 42.445312 -58.890625 37.84375 -58.890625 C 31.445312 -58.890625 26.4375 -56.710938 22.8125 -52.359375 C 19.195312 -48.015625 17.390625 -42.054688 17.390625 -34.484375 C 17.390625 -26.910156 19.195312 -20.960938 22.8125 -16.640625 C 26.4375 -12.328125 31.445312 -10.171875 37.84375 -10.171875 C 42.445312 -10.171875 46.148438 -11.175781 48.953125 -13.1875 C 51.753906 -15.195312 53.582031 -17.976562 54.4375 -21.53125 L 68.375 -21.53125 C 67.050781 -14.425781 63.738281 -8.863281 58.4375 -4.84375 C 53.132812 -0.820312 46.332031 1.1875 38.03125 1.1875 Z M 38.03125 1.1875 "/></g></g></g><g fill="#f7f3e4" fill-opacity="1"><g transform="translate(340.373348, 98.235833)"><g><path d="M 6.71875 0 L 6.71875 -69.15625 L 19.359375 -69.15625 L 19.359375 -9.875 L 49.984375 -9.875 L 49.984375 0 Z M 6.71875 0 "/></g></g></g><g fill="#f7f3e4" fill-opacity="1"><g transform="translate(400.339175, 98.235833)"><g><path d="M 33.390625 1.1875 C 28.316406 1.1875 23.738281 0.179688 19.65625 -1.828125 C 15.570312 -3.835938 12.328125 -6.882812 9.921875 -10.96875 C 7.523438 -15.050781 6.328125 -20.222656 6.328125 -26.484375 L 6.328125 -69.15625 L 18.96875 -69.15625 L 18.96875 -26.375 C 18.96875 -20.976562 20.269531 -16.960938 22.875 -14.328125 C 25.476562 -11.691406 29.082031 -10.375 33.6875 -10.375 C 38.226562 -10.375 41.816406 -11.691406 44.453125 -14.328125 C 47.085938 -16.960938 48.40625 -20.976562 48.40625 -26.375 L 48.40625 -69.15625 L 61.0625 -69.15625 L 61.0625 -26.484375 C 61.0625 -20.222656 59.804688 -15.050781 57.296875 -10.96875 C 54.796875 -6.882812 51.453125 -3.835938 47.265625 -1.828125 C 43.085938 0.179688 38.460938 1.1875 33.390625 1.1875 Z M 33.390625 1.1875 "/></g></g></g><g fill="#f7f3e4" fill-opacity="1"><g transform="translate(476.111478, 98.235833)"><g><path d="M 6.71875 0 L 6.71875 -69.15625 L 34.484375 -69.15625 C 41.660156 -69.15625 47.140625 -67.488281 50.921875 -64.15625 C 54.710938 -60.832031 56.609375 -56.570312 56.609375 -51.375 C 56.609375 -47.03125 55.4375 -43.554688 53.09375 -40.953125 C 50.757812 -38.347656 47.914062 -36.585938 44.5625 -35.671875 C 48.507812 -34.878906 51.765625 -32.914062 54.328125 -29.78125 C 56.898438 -26.65625 58.1875 -23.019531 58.1875 -18.875 C 58.1875 -13.40625 56.207031 -8.890625 52.25 -5.328125 C 48.300781 -1.773438 42.707031 0 35.46875 0 Z M 19.359375 -40.109375 L 32.609375 -40.109375 C 36.160156 -40.109375 38.890625 -40.929688 40.796875 -42.578125 C 42.710938 -44.222656 43.671875 -46.5625 43.671875 -49.59375 C 43.671875 -52.488281 42.726562 -54.773438 40.84375 -56.453125 C 38.96875 -58.140625 36.15625 -58.984375 32.40625 -58.984375 L 19.359375 -58.984375 Z M 19.359375 -10.28125 L 33.484375 -10.28125 C 37.242188 -10.28125 40.160156 -11.148438 42.234375 -12.890625 C 44.304688 -14.640625 45.34375 -17.09375 45.34375 -20.25 C 45.34375 -23.476562 44.253906 -26.015625 42.078125 -27.859375 C 39.910156 -29.703125 36.984375 -30.625 33.296875 -30.625 L 19.359375 -30.625 Z M 19.359375 -10.28125 "/></g></g></g></g></g><g clip-path="url(#cca1b0a1ce)"><path fill="#fcf4df" d="M 853.917969 444.933594 L 855.796875 444.917969 L 857.839844 444.921875 L 860.003906 444.914062 C 861.960938 444.902344 863.917969 444.902344 865.875 444.90625 C 867.507812 444.910156 869.144531 444.90625 870.78125 444.902344 C 874.644531 444.894531 878.503906 444.894531 882.367188 444.902344 C 886.34375 444.90625 890.316406 444.902344 894.292969 444.886719 C 897.714844 444.875 901.132812 444.871094 904.554688 444.875 C 906.59375 444.875 908.632812 444.875 910.671875 444.867188 C 912.59375 444.859375 914.511719 444.859375 916.433594 444.871094 C 917.46875 444.871094 918.503906 444.867188 919.535156 444.859375 C 923.367188 444.890625 926.070312 445.398438 929.433594 447.199219 C 930.601562 447.597656 931.777344 447.972656 932.957031 448.332031 C 946.46875 452.6875 960.324219 459.824219 970.78125 469.496094 C 972.207031 470.8125 973.695312 472.050781 975.183594 473.292969 C 975.972656 474.089844 975.972656 474.089844 976.492188 475.640625 L 978.042969 476.160156 L 978.042969 477.195312 L 979.078125 477.195312 C 979.777344 477.960938 979.777344 477.960938 980.574219 479.027344 L 981.457031 480.191406 L 982.375 481.425781 L 984.164062 483.808594 L 985.023438 484.964844 C 985.632812 485.757812 986.253906 486.539062 986.894531 487.304688 C 988.207031 489.011719 989.253906 490.839844 990.324219 492.707031 C 992.207031 495.972656 992.207031 495.972656 994.1875 499.175781 C 1002.734375 512.542969 1007.21875 530.699219 1007.984375 546.417969 L 1008.035156 547.523438 C 1008.070312 548.109375 1008.109375 548.699219 1008.144531 549.304688 C 1008.574219 562.726562 1005.253906 575.871094 1000.988281 588.46875 L 1000.40625 590.203125 C 999.453125 592.914062 998.585938 594.992188 996.660156 597.164062 C 995.933594 598.40625 995.300781 599.695312 994.65625 600.980469 C 993.507812 603.21875 992.425781 605.214844 990.679688 607.054688 L 989.417969 608.542969 C 989.226562 609.859375 989.226562 609.859375 989.9375 611.128906 C 991.28125 611.972656 992.746094 612.460938 994.234375 613 C 1003.558594 616.664062 1013.230469 621.566406 1019.929688 629.226562 L 1019.929688 630.261719 L 1021.480469 630.777344 C 1022.367188 631.617188 1023.226562 632.476562 1024.066406 633.363281 L 1025.269531 634.585938 C 1028.828125 638.367188 1031.699219 642.386719 1034.410156 646.808594 L 1034.996094 647.753906 C 1038.207031 653.019531 1039.863281 658.375 1041.132812 664.390625 L 1041.386719 665.566406 C 1044.097656 678.359375 1042.808594 691.4375 1039.003906 703.871094 C 1037.855469 707.300781 1036.277344 710.425781 1034.410156 713.515625 L 1033.792969 714.542969 C 1028.667969 722.90625 1021.953125 729.40625 1013.675781 734.609375 C 1012.773438 735.183594 1011.890625 735.78125 1011.007812 736.382812 C 1006.554688 739.285156 1001.765625 741.351562 996.886719 743.410156 L 995.855469 743.847656 C 989.585938 746.496094 983.214844 748.496094 976.523438 749.8125 L 975.191406 750.074219 C 964.316406 752.125 952.75 751.683594 941.84375 750.039062 L 940.628906 749.859375 C 938.355469 749.492188 936.328125 748.925781 934.195312 748.074219 C 931.300781 746.992188 928.277344 746.25 925.308594 745.417969 C 920.4375 744.035156 915.746094 742.191406 911.238281 739.890625 L 910.203125 739.371094 C 904.023438 736.253906 904.023438 736.253906 902.800781 734.878906 L 902.027344 734.199219 C 900.160156 733.824219 900.160156 733.824219 898.40625 733.683594 C 897.921875 734.394531 897.433594 735.105469 896.953125 735.816406 L 896.132812 737.015625 C 895.269531 738.34375 895.269531 738.34375 894.546875 739.855469 C 892.414062 744.113281 889.523438 748.542969 885.996094 751.78125 L 884.960938 751.78125 L 884.542969 752.722656 C 883.351562 754.90625 881.296875 756.316406 879.230469 757.644531 C 878.09375 758.308594 876.945312 758.949219 875.785156 759.570312 L 874.53125 760.253906 C 860.636719 767.738281 845.847656 770.769531 830.148438 771.433594 L 828.691406 771.496094 C 821.480469 771.757812 814.507812 771.03125 807.394531 769.882812 L 806.25 769.707031 C 802.390625 769.09375 799.445312 768.136719 796.191406 765.96875 C 794.351562 764.839844 792.398438 764.246094 790.328125 763.675781 L 790.328125 762.640625 L 789.367188 762.339844 L 788.097656 761.929688 L 786.84375 761.53125 C 785.675781 761.089844 785.675781 761.089844 784.125 760.054688 C 780.425781 759.597656 777.484375 760.8125 774.039062 762.074219 C 746.28125 772.136719 712.074219 781.5 682.285156 778.738281 L 680.949219 778.613281 C 677.890625 778.304688 674.914062 777.773438 671.910156 777.121094 L 671.910156 776.085938 L 671.015625 775.953125 C 665.097656 774.925781 659.84375 772.660156 654.84375 769.363281 L 653.351562 768.390625 C 651.679688 767.253906 650.074219 766.046875 648.476562 764.808594 L 647.589844 764.128906 C 646.257812 763.105469 644.960938 762.074219 643.695312 760.964844 C 642.617188 760.035156 641.601562 759.214844 640.367188 758.503906 C 638.515625 758.179688 638.515625 758.179688 637.335938 758.523438 C 635.40625 759.394531 633.8125 760.675781 632.144531 761.964844 C 615.652344 774.261719 594.398438 780.296875 574.277344 783.003906 C 558.050781 784.707031 538.429688 784.175781 523.273438 777.535156 C 521.394531 776.628906 519.605469 775.597656 517.808594 774.535156 L 516.257812 774.019531 L 516.257812 772.984375 L 515.171875 772.574219 C 511.160156 770.90625 507.285156 768.886719 504.089844 765.917969 C 502.90625 764.84375 501.566406 764.023438 500.226562 763.160156 C 498.136719 761.738281 496.328125 760.292969 494.539062 758.503906 L 493.277344 757.761719 C 489.757812 755.613281 487.160156 751.933594 485.199219 748.355469 C 483.851562 746.011719 482.226562 744.125 480.316406 742.214844 C 477.636719 739.535156 476.21875 737.480469 474.902344 733.945312 C 474.257812 732.367188 473.414062 731.027344 472.488281 729.601562 C 470.042969 725.800781 468.367188 722.121094 467.136719 717.769531 C 466.457031 715.601562 465.523438 713.609375 464.523438 711.574219 C 464.027344 710.414062 464.027344 710.414062 464.027344 708.863281 L 462.996094 708.863281 C 462.640625 707.289062 462.425781 705.746094 462.285156 704.144531 C 462.097656 702.308594 461.710938 700.640625 461.183594 698.875 C 460.410156 696.234375 460.1875 693.730469 460.101562 690.988281 L 459.890625 689.730469 L 458.339844 688.695312 L 458.339844 687.660156 L 459.375 687.660156 C 459.230469 686.636719 459.078125 685.613281 458.921875 684.589844 L 458.667969 682.863281 L 458.339844 681.453125 L 457.308594 680.9375 L 457.324219 679.988281 C 457.328125 679.554688 457.335938 679.121094 457.339844 678.675781 L 457.355469 677.402344 C 457.316406 676.074219 457.203125 674.816406 457.050781 673.5 C 456.726562 670.285156 456.695312 667.082031 456.683594 663.851562 L 456.675781 661.910156 C 456.671875 660.558594 456.667969 659.207031 456.664062 657.851562 C 456.660156 655.824219 456.644531 653.796875 456.628906 651.769531 C 456.597656 644.019531 456.992188 636.515625 458.199219 628.859375 C 458.351562 627.589844 458.363281 626.363281 458.339844 625.089844 L 459.375 625.089844 L 459.398438 624.054688 C 460.003906 611.449219 464.023438 598.671875 468.167969 586.824219 C 468.417969 586.0625 468.671875 585.300781 468.925781 584.539062 C 470.078125 581.109375 471.136719 578.003906 473.230469 575.027344 C 474.113281 573.429688 474.574219 571.726562 475.082031 569.984375 C 477.5625 561.59375 482.027344 554.089844 486.265625 546.488281 L 486.914062 545.3125 C 490.019531 539.726562 490.019531 539.726562 491.441406 537.949219 C 492.527344 536.589844 493.339844 535.207031 494.183594 533.6875 C 495.578125 531.25 497.101562 529.089844 498.875 526.914062 C 499.71875 525.789062 500.359375 524.660156 501.003906 523.410156 C 502.070312 521.398438 503.320312 519.984375 504.972656 518.425781 C 507.246094 516.257812 509.222656 513.824219 511.089844 511.300781 C 513.480469 508.210938 516.277344 505.539062 519.070312 502.824219 C 520.105469 501.8125 521.140625 500.800781 522.171875 499.789062 L 523.546875 498.449219 L 524.53125 497.363281 L 524.53125 496.328125 L 525.421875 496.214844 C 527.042969 495.65625 527.773438 494.710938 528.925781 493.449219 C 531.242188 491.050781 533.648438 489.316406 536.457031 487.535156 C 537.972656 486.503906 539.257812 485.394531 540.59375 484.140625 C 543.144531 481.777344 545.855469 480.003906 548.835938 478.226562 C 549.441406 477.859375 550.046875 477.488281 550.648438 477.113281 C 563.386719 469.3125 576.535156 464.011719 591.144531 460.773438 L 592.542969 460.464844 C 599.613281 458.964844 606.53125 458.363281 613.734375 458.382812 L 614.964844 458.386719 C 628.566406 458.433594 643.488281 460.988281 655.453125 467.785156 C 657.167969 468.820312 658.851562 469.894531 660.535156 470.988281 L 662.101562 471.972656 C 664.984375 473.828125 667.738281 475.859375 670.359375 478.066406 L 671.207031 478.773438 C 672.46875 479.855469 673.554688 480.929688 674.589844 482.234375 C 675.488281 483.527344 675.488281 483.527344 677.144531 484.109375 L 679.148438 483.917969 C 680.523438 482.914062 681.695312 481.792969 682.914062 480.609375 C 692.425781 471.515625 704.796875 465.53125 717.441406 462.3125 C 724.976562 460.515625 732.078125 459.507812 739.820312 459.488281 C 740.960938 459.484375 742.101562 459.464844 743.246094 459.449219 C 754.113281 459.371094 765.246094 462.140625 774.816406 467.367188 C 779.132812 469.984375 783.582031 472.816406 786.492188 477.023438 L 787.226562 477.710938 C 788.449219 478.023438 788.449219 478.023438 789.8125 477.710938 C 792.246094 476.332031 794.261719 474.519531 796.339844 472.667969 C 799.070312 470.285156 801.863281 468.179688 804.921875 466.226562 C 806.261719 465.363281 807.535156 464.441406 808.816406 463.488281 C 811.929688 461.296875 815.320312 459.714844 818.742188 458.066406 C 819.742188 457.574219 820.722656 457.058594 821.703125 456.527344 C 829.578125 452.300781 838.195312 449.679688 846.757812 447.210938 C 848.253906 446.75 848.253906 446.75 849.441406 445.886719 C 851.070312 445.003906 852.074219 444.9375 853.917969 444.933594 M 719.484375 487.535156 L 719.484375 488.570312 L 717.996094 488.667969 C 715.339844 489.039062 712.960938 490.277344 710.695312 491.671875 L 710.175781 492.707031 C 709.320312 493.207031 708.453125 493.699219 707.585938 494.179688 C 705.949219 495.125 704.457031 496.242188 702.9375 497.363281 C 703.859375 497.953125 703.859375 497.953125 705.003906 498.394531 C 707.183594 498.171875 708.917969 496.816406 710.726562 495.679688 C 715.46875 492.777344 720.183594 490.644531 725.515625 489.03125 L 726.722656 488.570312 L 727.242188 487.535156 L 726.722656 486.5 C 724.039062 486.390625 722.003906 486.714844 719.484375 487.535156 M 785.675781 576.480469 C 784.078125 583.65625 784.078125 583.65625 783.605469 590.960938 L 786.191406 591.476562 C 787.527344 584.023438 787.527344 584.023438 787.742188 576.480469 Z M 785.675781 576.480469 " fill-opacity="1" fill-rule="nonzero"/></g><path fill="#000000" d="M 868.929688 468.402344 C 874 468.355469 879.066406 468.320312 884.132812 468.296875 C 886.484375 468.285156 888.835938 468.269531 891.191406 468.246094 C 893.46875 468.222656 895.746094 468.210938 898.019531 468.207031 C 898.882812 468.203125 899.746094 468.195312 900.609375 468.183594 C 905.550781 468.121094 909.773438 468.417969 914.503906 469.980469 C 916.46875 470.628906 918.367188 470.917969 920.417969 471.214844 C 930.914062 472.917969 941.078125 478.792969 949.578125 485.039062 L 950.636719 485.984375 L 950.636719 487.019531 L 951.792969 487.425781 C 956.308594 489.410156 959.675781 494.007812 962.53125 497.878906 C 963.363281 499.171875 964.15625 500.488281 964.917969 501.824219 C 965.589844 502.976562 966.320312 504.058594 967.085938 505.148438 C 970.433594 510.105469 973.160156 515.636719 975.457031 521.148438 L 976.265625 522.894531 C 981.351562 535.722656 981.011719 551.089844 979.59375 564.585938 C 979.347656 566.050781 979.011719 567.414062 978.625 568.851562 L 978.34375 569.902344 C 978.074219 570.890625 977.800781 571.875 977.527344 572.859375 L 977.152344 574.332031 C 976.238281 577.773438 974.640625 580.648438 972.871094 583.71875 C 972.476562 584.445312 972.082031 585.171875 971.691406 585.902344 L 970.449219 588.179688 L 969.851562 589.296875 C 969.34375 590.214844 968.785156 591.105469 968.21875 591.992188 L 966.667969 592.511719 C 966.472656 593.195312 966.300781 593.882812 966.148438 594.578125 C 962.675781 600.496094 956.273438 604.824219 950.777344 608.703125 C 949.367188 609.75 948.21875 610.882812 947.015625 612.160156 L 945.464844 613.195312 C 945.503906 615.582031 945.652344 617.230469 946.785156 619.351562 C 947.417969 620.328125 948.066406 621.296875 948.726562 622.253906 C 949.601562 623.539062 949.601562 623.539062 950.105469 624.707031 L 950.636719 625.605469 C 951.589844 625.953125 951.589844 625.953125 952.703125 626.125 C 953.582031 626.503906 954.453125 626.890625 955.324219 627.285156 C 958.441406 628.609375 961.582031 629.460938 964.859375 630.289062 C 969.117188 631.367188 973.28125 632.695312 977.460938 634.050781 C 979.015625 634.542969 980.582031 634.980469 982.148438 635.429688 C 987.359375 637.058594 991.652344 639.5625 996.011719 642.800781 L 997.136719 643.632812 C 999.101562 645.136719 999.101562 645.136719 999.761719 645.773438 L 999.761719 646.808594 L 1000.632812 647.195312 C 1003.539062 648.765625 1005.195312 650.816406 1006.9375 653.53125 L 1007.613281 654.570312 C 1008.277344 655.601562 1008.933594 656.632812 1009.585938 657.667969 L 1010.652344 659.335938 C 1013.4375 663.878906 1015.464844 668.609375 1015.777344 673.984375 C 1015.800781 676.488281 1015.769531 678.984375 1015.695312 681.488281 L 1015.667969 682.933594 C 1015.523438 686.421875 1014.6875 689.167969 1013.207031 692.3125 L 1012.730469 693.347656 C 1012.296875 694.257812 1011.851562 695.164062 1011.398438 696.0625 L 1010.507812 697.847656 C 1009.601562 699.527344 1008.589844 701.082031 1007.519531 702.65625 L 1006.871094 703.917969 C 1005.730469 705.585938 1004.335938 706.730469 1002.78125 708.011719 C 1001.714844 708.890625 1001.714844 708.890625 1000.796875 710.414062 C 999.765625 710.980469 998.710938 711.421875 997.628906 711.882812 L 996.660156 712.480469 L 995.625 714.550781 C 992.785156 716.835938 989.804688 718.007812 986.230469 718.570312 L 985.28125 718.6875 L 985.28125 719.722656 C 978.125 722.542969 970.714844 724.664062 963.046875 725.410156 L 961.027344 725.621094 C 949.96875 726.613281 938.519531 724.894531 928.398438 720.238281 L 928.398438 719.203125 L 927.492188 718.902344 C 926.652344 718.621094 925.816406 718.339844 924.980469 718.058594 C 924.003906 717.738281 923.019531 717.449219 922.03125 717.167969 C 920.441406 716.539062 919.757812 715.769531 918.574219 714.550781 C 917.667969 714.035156 916.757812 713.53125 915.847656 713.03125 C 914.476562 712.1875 913.472656 711.054688 912.371094 709.894531 C 911.40625 709.078125 910.433594 708.273438 909.449219 707.480469 L 908.75 706.792969 L 908.75 705.757812 L 907.714844 705.757812 L 907.199219 704.207031 C 906.410156 703.554688 905.601562 702.929688 904.773438 702.332031 C 902.515625 700.589844 901.023438 698.886719 899.570312 696.441406 C 898.929688 695.425781 898.222656 694.707031 897.371094 693.867188 L 896.726562 692.507812 C 895.941406 690.996094 895.179688 689.929688 894.109375 688.628906 C 890.589844 684.1875 888.683594 678.996094 886.773438 673.726562 C 886.058594 671.761719 885.253906 669.839844 884.445312 667.914062 C 882.617188 663.40625 881.355469 658.75 880.085938 654.0625 C 879.835938 653.191406 879.566406 652.324219 879.273438 651.460938 L 878.238281 651.460938 L 878.238281 650.429688 L 874.621094 650.945312 C 873.859375 654.941406 874.359375 658.722656 874.8125 662.742188 L 875.03125 664.8125 C 875.355469 668.273438 875.355469 668.273438 876.171875 671.628906 C 876.230469 672.636719 876.261719 673.644531 876.28125 674.652344 C 876.296875 675.253906 876.308594 675.855469 876.324219 676.476562 C 876.351562 677.734375 876.375 678.992188 876.394531 680.25 C 876.480469 683.589844 876.757812 686.488281 877.910156 689.632812 C 878.285156 690.925781 878.328125 692.007812 878.238281 693.347656 L 877.722656 693.867188 C 877.605469 694.824219 877.507812 695.78125 877.433594 696.742188 L 877.300781 698.328125 L 877.207031 699.554688 L 878.238281 699.554688 C 878.640625 706.6875 877.398438 713.03125 874.253906 719.484375 C 873.414062 721.089844 872.539062 722.675781 871.625 724.238281 C 870.933594 725.480469 870.933594 725.480469 870.316406 727.15625 C 869.363281 729.214844 868.273438 730.597656 866.734375 732.230469 L 866.023438 733.023438 C 864.246094 734.945312 862.445312 736.066406 860.140625 737.304688 L 858.566406 738.375 C 851.132812 743.226562 840.460938 745.527344 831.699219 746.09375 C 822.273438 746.558594 813.820312 746.027344 805.113281 742.140625 C 801.984375 740.503906 799.457031 738.308594 797.050781 735.753906 L 797.570312 734.71875 C 798.425781 734.207031 799.285156 733.695312 800.164062 733.21875 C 805.792969 730.148438 805.792969 730.148438 810.402344 725.796875 C 811.796875 724.042969 813.1875 723.195312 815.25 722.371094 L 816.183594 721.789062 C 816.535156 720.929688 816.878906 720.066406 817.21875 719.203125 C 818.511719 717.75 818.511719 717.75 819.804688 716.617188 L 820.839844 716.617188 L 821.261719 715.421875 C 821.875 714.03125 821.875 714.03125 822.597656 713.339844 C 826.070312 709.742188 827.996094 703.214844 829.628906 698.519531 C 829.832031 697.492188 830.007812 696.457031 830.148438 695.417969 L 830.40625 693.933594 C 832.039062 684.101562 832.503906 673.714844 829.140625 664.171875 C 827.277344 659.601562 824.03125 655.253906 820.324219 651.980469 C 812.042969 646.78125 804.070312 645.03125 794.4375 644.648438 C 792.238281 644.570312 790.039062 644.507812 787.839844 644.449219 L 785.542969 644.382812 C 783.691406 644.328125 781.839844 644.273438 779.988281 644.222656 C 778.933594 640.421875 779.566406 636.425781 779.957031 632.554688 L 780.089844 631.132812 C 780.789062 624 780.789062 624 781.539062 622.503906 C 781.640625 621.730469 781.726562 620.953125 781.796875 620.175781 C 782 617.964844 782 617.964844 782.574219 616.816406 C 782.667969 615.347656 782.742188 613.886719 782.800781 612.417969 C 782.941406 609.363281 783.183594 606.453125 783.878906 603.464844 C 784.222656 601.875 784.371094 600.285156 784.515625 598.667969 C 784.640625 597.683594 784.640625 597.683594 785.160156 596.128906 L 785.09375 594.613281 C 785.066406 592.898438 785.402344 591.472656 785.871094 589.828125 C 786.878906 586.066406 787.183594 582.277344 787.523438 578.410156 C 788.070312 572.210938 788.070312 572.210938 788.777344 570.792969 C 788.9375 569.453125 789.042969 568.109375 789.148438 566.765625 L 789.296875 565.621094 L 789.8125 565.105469 C 790 563.886719 790.15625 562.675781 790.296875 561.453125 L 790.566406 559.191406 L 790.703125 558.015625 C 790.84375 556.851562 790.992188 555.691406 791.144531 554.53125 C 791.191406 554.164062 791.238281 553.796875 791.289062 553.417969 L 791.691406 550.328125 C 791.90625 548.609375 791.90625 548.609375 791.878906 547.089844 C 791.882812 545.96875 791.882812 545.96875 792.398438 544.9375 L 792.367188 543.515625 C 792.398438 541.832031 792.398438 541.832031 792.871094 540.542969 C 793.652344 538.011719 793.859375 535.476562 794.144531 532.847656 C 795.058594 525.09375 796.582031 518.347656 800.15625 511.324219 L 800.855469 509.867188 C 802.019531 507.464844 803.257812 505.230469 804.808594 503.050781 L 805.421875 502.148438 C 807.511719 499.117188 810.015625 496.761719 812.847656 494.429688 C 813.664062 493.761719 813.664062 493.761719 814.117188 492.707031 C 815.492188 491.804688 816.6875 491.160156 818.253906 490.640625 L 818.769531 489.085938 C 819.695312 488.460938 819.695312 488.460938 820.871094 487.859375 C 822.894531 486.796875 824.8125 485.644531 826.71875 484.390625 C 827.5625 483.917969 827.5625 483.917969 828.597656 483.917969 L 828.597656 482.882812 C 832.601562 480.800781 836.582031 478.871094 840.828125 477.316406 C 841.984375 476.886719 843.132812 476.441406 844.273438 475.972656 C 849.0625 474.050781 853.964844 472.648438 858.945312 471.3125 L 859.992188 471.027344 C 860.992188 470.757812 861.992188 470.496094 862.992188 470.234375 L 864.757812 469.765625 C 866.207031 469.464844 867.457031 469.371094 868.929688 469.4375 Z M 621.234375 484.949219 L 622.453125 485.078125 C 630.671875 486 638.660156 488.566406 645.535156 493.222656 C 646.28125 493.667969 647.023438 494.109375 647.765625 494.550781 C 649.507812 495.644531 650.835938 496.902344 652.257812 498.394531 C 653.308594 499.328125 654.363281 500.25 655.429688 501.164062 C 657.195312 502.71875 657.195312 502.71875 657.949219 503.566406 L 657.949219 504.601562 L 659.5 505.117188 C 660.003906 505.949219 660.5 506.789062 660.957031 507.648438 C 661.878906 509.292969 662.976562 510.808594 664.0625 512.347656 L 664.671875 513.390625 L 664.671875 514.941406 L 665.703125 514.941406 L 666.144531 515.875 L 668.160156 520.113281 L 668.855469 521.578125 C 669.886719 523.742188 670.921875 525.902344 672.015625 528.035156 C 675.214844 534.417969 675.847656 541.824219 676.867188 548.800781 C 677.054688 550.082031 677.054688 550.082031 677.367188 551.207031 C 677.597656 552.175781 677.597656 552.175781 677.566406 553.890625 C 677.511719 555.78125 677.511719 555.78125 678.109375 557.464844 C 678.667969 559.546875 678.777344 561.453125 678.765625 563.589844 L 678.773438 564.804688 C 678.777344 566.121094 678.773438 567.433594 678.769531 568.75 L 678.773438 571.515625 C 678.773438 573.441406 678.773438 575.371094 678.765625 577.300781 C 678.761719 579.761719 678.765625 582.21875 678.769531 584.679688 C 678.773438 586.582031 678.773438 588.488281 678.769531 590.390625 C 678.769531 591.296875 678.769531 592.203125 678.773438 593.109375 C 678.792969 601.675781 678.792969 601.675781 677.824219 605.480469 C 677.453125 607.105469 677.539062 608.695312 677.597656 610.351562 C 677.636719 613.03125 677.472656 615.371094 676.855469 617.96875 C 676.472656 619.855469 676.28125 621.753906 676.078125 623.667969 C 675.707031 627.078125 675.113281 630.371094 674.347656 633.71875 C 673.992188 635.363281 673.730469 636.996094 673.492188 638.664062 C 672.609375 644.582031 671.699219 650.585938 668.78125 655.878906 C 668.1875 657.164062 668.1875 657.164062 668.34375 658.707031 C 668.265625 661.765625 667.242188 664.421875 666.253906 667.296875 L 665.617188 669.175781 C 662.621094 677.828125 658.921875 685.949219 654.578125 694.003906 C 653.515625 695.984375 652.589844 698 651.691406 700.058594 C 649.488281 704.984375 646.261719 709.292969 642.953125 713.515625 L 641.898438 714.875 C 639.132812 718.390625 636.238281 721.828125 633.039062 724.957031 C 632.023438 725.917969 632.023438 725.917969 631.316406 727.285156 C 630.539062 728.511719 630.539062 728.511719 629.570312 729.03125 L 628.472656 729.546875 C 627.054688 730.855469 625.84375 732.1875 624.660156 733.714844 C 623.316406 735.21875 622.285156 735.886719 620.546875 736.792969 C 619.558594 737.324219 619.558594 737.324219 618.519531 738.5 C 616.417969 740.550781 613.996094 742.125 611.40625 743.507812 C 609.9375 743.871094 609.9375 743.871094 608.820312 744.027344 L 608.820312 745.058594 C 604.410156 747.324219 600 749.460938 595.375 751.265625 L 594.292969 751.695312 C 588.539062 753.953125 582.839844 755.8125 576.761719 756.953125 L 574.898438 757.308594 C 564.242188 758.960938 552.53125 758.882812 542.113281 755.917969 C 539.785156 755.007812 537.550781 753.925781 535.292969 752.847656 C 533.085938 751.8125 530.949219 750.992188 528.605469 750.328125 C 525.5625 749.375 523.550781 747.75 521.183594 745.65625 C 520.058594 744.699219 519.027344 743.992188 517.746094 743.28125 C 515.476562 741.945312 513.945312 740.054688 512.238281 738.074219 C 510.367188 735.980469 508.210938 734.21875 506.058594 732.417969 C 504.40625 730.929688 503.589844 729.667969 502.878906 727.542969 C 502.675781 726.835938 502.476562 726.125 502.296875 725.410156 L 501.261719 725.410156 C 500.007812 723.589844 499.089844 721.59375 498.140625 719.601562 C 497.648438 718.597656 497.648438 718.597656 496.609375 717.652344 C 496.273438 716.777344 495.96875 715.894531 495.691406 715 L 495.171875 713.378906 C 494.820312 712.257812 494.46875 711.132812 494.117188 710.011719 C 493.148438 706.996094 492.089844 704.304688 490.40625 701.617188 C 489.652344 700.132812 489.574219 698.734375 489.542969 697.09375 C 489.429688 695.863281 489.429688 695.863281 488.648438 694.667969 C 487.394531 691.898438 487.148438 689.042969 486.75 686.042969 L 486.246094 682.421875 L 486.03125 680.804688 C 485.871094 679.710938 485.699219 678.613281 485.492188 677.523438 C 484.726562 673.425781 484.570312 669.484375 484.59375 665.320312 L 484.59375 663.257812 C 484.597656 661.832031 484.601562 660.402344 484.605469 658.972656 C 484.617188 657.15625 484.617188 655.335938 484.617188 653.519531 C 484.617188 651.765625 484.621094 650.011719 484.628906 648.257812 L 484.628906 646.296875 C 484.648438 642.980469 484.742188 639.75 485.230469 636.464844 L 485.75 635.949219 C 485.878906 635.171875 485.992188 634.390625 486.082031 633.605469 L 486.265625 632.121094 L 486.460938 630.519531 C 487.808594 619.84375 490.144531 609.867188 493.410156 599.617188 C 493.980469 597.816406 494.519531 596.003906 495.054688 594.191406 C 496.691406 588.898438 499.019531 583.933594 501.425781 578.957031 L 501.949219 577.871094 L 502.414062 576.90625 C 502.832031 575.914062 503.097656 574.941406 503.328125 573.894531 L 504.363281 573.894531 L 504.632812 573.023438 C 505.917969 568.972656 507.691406 565.496094 509.976562 561.929688 C 510.632812 560.902344 510.632812 560.902344 511.28125 559.480469 C 512.277344 557.5625 513.484375 555.871094 514.738281 554.113281 C 515.742188 552.691406 516.695312 551.242188 517.648438 549.785156 C 519.609375 546.816406 521.738281 544.003906 523.898438 541.179688 C 525.269531 539.367188 526.503906 537.597656 527.539062 535.5625 C 528.503906 533.675781 529.625 532.636719 531.28125 531.34375 C 532.535156 530.242188 533.511719 529.015625 534.550781 527.710938 C 536.726562 524.980469 539.085938 522.535156 541.597656 520.113281 L 542.335938 519.347656 C 543.449219 518.273438 544.652344 517.332031 545.863281 516.367188 C 548.695312 514.0625 551.453125 511.789062 553.492188 508.738281 L 554.523438 508.738281 L 554.523438 507.703125 C 555.351562 507.28125 556.183594 506.863281 557.011719 506.445312 L 558.414062 505.734375 C 559.695312 505.117188 559.695312 505.117188 561.246094 504.601562 L 561.765625 503.050781 C 562.777344 502.386719 562.777344 502.386719 564.027344 501.757812 C 565.613281 500.949219 566.730469 500.183594 567.96875 498.914062 C 568.828125 498.566406 569.691406 498.21875 570.554688 497.878906 L 571.074219 496.84375 C 571.882812 496.472656 572.695312 496.105469 573.519531 495.773438 C 574.886719 495.210938 576.234375 494.609375 577.585938 494.007812 C 584.785156 490.839844 591.847656 488.257812 599.515625 486.5 L 600.882812 486.167969 C 607.808594 484.503906 614.15625 484.171875 621.234375 484.949219 " fill-opacity="1" fill-rule="nonzero"/><path fill="#000000" d="M 732.929688 485.984375 C 742.316406 485.582031 751.59375 485.832031 760.160156 490.125 C 765.25 492.921875 769.402344 496.625 772.441406 501.613281 C 775.332031 506.582031 777.132812 511.679688 777.789062 517.398438 L 777.980469 519.023438 C 778.523438 524.371094 778.589844 529.710938 778.597656 535.078125 L 778.601562 536.351562 C 778.613281 540.921875 778.460938 545.4375 777.972656 549.980469 L 777.851562 551.117188 C 777.574219 553.453125 777.039062 555.617188 776.367188 557.863281 C 776.28125 559.21875 776.28125 559.21875 776.367188 560.480469 C 776.414062 562.625 776.023438 564.101562 775.332031 566.136719 C 775.242188 567.070312 775.164062 568 775.105469 568.933594 C 774.847656 572.273438 774.351562 575.542969 773.78125 578.839844 L 773.503906 580.507812 C 772.820312 584.535156 772.820312 584.535156 772.230469 586.304688 C 772.042969 587.5625 771.871094 588.824219 771.714844 590.085938 C 771.414062 592.453125 771.070312 594.8125 770.679688 597.164062 C 770.585938 597.949219 770.5 598.738281 770.421875 599.523438 C 770.246094 601.179688 769.972656 602.773438 769.644531 604.40625 C 769.566406 605.105469 769.488281 605.804688 769.417969 606.503906 C 769.03125 610.144531 768.527344 613.800781 767.542969 617.332031 C 767.128906 618.898438 766.964844 620.386719 766.863281 622.003906 C 766.539062 626.148438 765.902344 630.242188 765.261719 634.351562 C 765.054688 635.6875 764.855469 637.023438 764.652344 638.363281 C 764.09375 642.023438 763.535156 645.613281 762.53125 649.183594 C 761.777344 651.957031 761.890625 654.339844 762.40625 657.148438 C 768.226562 656.726562 773.933594 656.140625 779.664062 655.015625 C 787.4375 653.550781 796.015625 652.988281 803.753906 654.996094 C 807.550781 656.453125 810.785156 658.785156 813.566406 661.738281 C 817.46875 666.660156 819.296875 672.738281 820.324219 678.871094 C 820.449219 681.195312 820.214844 683.300781 819.804688 685.589844 L 819.523438 687.515625 C 818.253906 695.6875 815.734375 703.082031 811.015625 709.894531 L 809.980469 711.449219 L 808.429688 711.964844 C 807.691406 712.804688 807.691406 712.804688 807.007812 713.839844 C 805.433594 716.003906 803.800781 718.039062 801.707031 719.722656 C 800.679688 720.089844 799.648438 720.441406 798.605469 720.753906 L 798.152344 721.710938 C 797.570312 722.824219 797.570312 722.824219 796.496094 723.691406 C 793.675781 725.460938 790.757812 727.058594 787.742188 728.480469 L 786.730469 728.960938 C 785.25 729.640625 784.222656 730.0625 782.574219 730.0625 L 782.171875 731.042969 L 781.539062 732.132812 C 780.121094 732.832031 778.664062 733.445312 777.175781 733.976562 L 775.734375 734.503906 C 760.960938 739.820312 745.921875 743.777344 730.636719 747.335938 C 729.382812 747.628906 728.128906 747.921875 726.871094 748.21875 C 694.0625 755.957031 694.0625 755.957031 679.660156 752.09375 C 675.425781 750.816406 670.933594 749.289062 667.480469 746.449219 L 666.222656 745.058594 L 666.222656 744.027344 L 665.367188 743.734375 C 663.5625 742.628906 662.519531 741.09375 661.277344 739.40625 L 660.523438 738.441406 C 658.476562 735.683594 657.5 732.917969 656.914062 729.546875 C 656.707031 727.460938 656.664062 725.402344 656.6875 723.308594 L 656.703125 721.589844 C 656.9375 711.285156 660.613281 702.730469 664.671875 693.347656 L 665.246094 692.015625 C 665.996094 690.277344 666.753906 688.542969 667.523438 686.808594 C 668.457031 684.691406 669.347656 682.558594 670.230469 680.421875 C 671.195312 678.105469 672.191406 675.804688 673.1875 673.5 C 674.914062 669.414062 676.492188 665.304688 677.890625 661.09375 L 678.367188 659.660156 C 679.347656 656.675781 680.222656 653.691406 680.90625 650.621094 C 681.246094 649.289062 681.742188 648.082031 682.253906 646.808594 C 683.191406 643.757812 683.796875 640.6875 684.382812 637.558594 C 684.710938 635.925781 685.136719 634.339844 685.59375 632.738281 C 686.460938 629.628906 686.996094 626.5 687.488281 623.3125 L 687.753906 621.679688 C 688.257812 618.453125 688.632812 615.214844 688.875 611.960938 C 689.617188 602.039062 689.617188 602.039062 690.8125 597.667969 C 691.527344 594.511719 691.234375 590.847656 690.753906 587.664062 C 690.527344 585.789062 690.527344 585.789062 690.765625 584.316406 C 691.25 581.199219 691.128906 578.03125 691.128906 574.882812 L 691.136719 572.738281 C 691.136719 571.238281 691.140625 569.738281 691.140625 568.238281 C 691.140625 566.71875 691.140625 565.199219 691.148438 563.675781 C 691.234375 552.882812 691.234375 552.882812 690.257812 542.144531 C 689.820312 538.886719 689.746094 535.613281 689.652344 532.332031 L 689.578125 530.355469 C 689.355469 523.261719 689.921875 517.703125 693.113281 511.324219 C 694.160156 509.753906 695.390625 508.511719 696.730469 507.1875 C 697.59375 506.261719 698.453125 505.332031 699.308594 504.398438 C 700.1875 503.441406 701.070312 502.488281 701.960938 501.535156 L 702.71875 500.722656 C 704.070312 499.296875 705.230469 498.191406 706.976562 497.265625 C 708.734375 496.320312 710.46875 495.332031 712.179688 494.308594 C 717.984375 490.878906 724.183594 488.214844 730.859375 487.019531 L 732.929688 487.019531 Z M 732.929688 485.984375 " fill-opacity="1" fill-rule="nonzero"/><path fill="#fcf4df" d="M 611.40625 573.894531 C 613.632812 574.386719 615.476562 575.070312 617.402344 576.304688 C 618.925781 577.785156 619.515625 579.242188 620.101562 581.230469 L 620.429688 582.332031 C 622.746094 590.820312 620.84375 600.023438 618.742188 608.378906 C 617.058594 614.324219 615.09375 621.085938 611.40625 626.125 C 610.726562 626.484375 610.039062 626.832031 609.339844 627.15625 L 608.917969 628.484375 C 608.050781 631 606.507812 632.980469 604.683594 634.914062 L 603.652344 634.914062 L 603.652344 635.949219 C 603.066406 636.558594 602.46875 637.152344 601.855469 637.734375 C 600.988281 638.609375 600.25 639.546875 599.480469 640.507812 C 596.726562 643.679688 593.03125 646.148438 589.171875 647.808594 C 586.21875 648.753906 582.828125 649.261719 579.769531 648.652344 C 578.273438 648.085938 577.296875 647.347656 576.21875 646.175781 C 574.046875 643.082031 573.300781 639.253906 572.960938 635.535156 C 572.902344 633.546875 572.910156 631.570312 572.945312 629.582031 L 572.949219 627.554688 C 572.980469 624.011719 573.1875 620.738281 574.175781 617.332031 L 574.714844 615.378906 C 576.8125 608.558594 579.195312 601.710938 582.964844 595.613281 L 584 595.613281 L 584 594.0625 L 585.035156 594.0625 L 585.21875 593.132812 C 585.753906 591.292969 587.019531 589.941406 588.203125 588.472656 L 588.984375 587.488281 C 590.816406 585.222656 592.703125 583.097656 594.859375 581.132812 L 595.78125 580.226562 C 600.0625 576.167969 605.441406 573.367188 611.40625 573.894531 M 898.117188 542.996094 C 900.820312 544.324219 902.875 545.613281 904.773438 547.972656 C 906.496094 551.164062 906.910156 554.105469 906.847656 557.691406 C 906.550781 560.789062 905.777344 563.773438 904.613281 566.65625 C 903.546875 568.082031 903.546875 568.082031 902.542969 569.242188 L 901.867188 570.46875 C 900.855469 572.042969 899.664062 573.210938 898.3125 574.492188 C 897.320312 575.453125 897.320312 575.453125 896.449219 576.71875 C 895.070312 578.300781 893.554688 579.191406 891.714844 580.132812 L 890.683594 580.671875 C 885.15625 583.46875 879.457031 584.921875 873.257812 584.835938 C 870.46875 584.652344 867.839844 584.1875 865.3125 582.976562 C 864.277344 582.167969 864.277344 582.167969 863.242188 580.617188 C 862.054688 572.410156 863.640625 563.914062 866.429688 556.203125 C 868.109375 552.496094 870.695312 549.394531 873.972656 547 C 881.230469 542.296875 889.59375 540.125 898.117188 542.996094 M 593.824219 501.5 C 593.699219 502.402344 593.699219 502.402344 593.308594 503.566406 C 590.378906 506.863281 586.589844 509.414062 583.054688 512.015625 C 580.347656 514.023438 577.789062 516.15625 575.253906 518.375 C 573.269531 520.101562 571.234375 521.730469 569.132812 523.3125 C 566.636719 525.199219 564.296875 527.199219 561.996094 529.316406 C 560.246094 530.894531 558.417969 532.363281 556.585938 533.84375 C 554.832031 535.285156 553.109375 536.761719 551.390625 538.246094 C 548.527344 540.714844 545.605469 543.117188 542.632812 545.453125 L 540.910156 546.835938 L 539.109375 548.265625 L 538.261719 548.949219 C 536.992188 549.945312 535.980469 550.605469 534.414062 551.03125 L 533.324219 551.140625 C 533.195312 550.03125 533.195312 550.03125 533.324219 548.554688 C 534.175781 547.144531 534.175781 547.144531 535.359375 545.648438 L 535.996094 544.828125 C 536.652344 544 537.3125 543.171875 537.976562 542.351562 L 539.121094 540.898438 C 541.609375 537.796875 544.238281 534.855469 546.945312 531.949219 C 548.554688 530.199219 550.109375 528.410156 551.648438 526.601562 L 552.457031 525.804688 L 553.492188 525.804688 L 553.492188 524.769531 L 554.460938 524.671875 L 555.558594 524.25 L 555.980469 523.121094 C 556.734375 521.332031 557.734375 520.523438 559.203125 519.300781 C 560.359375 518.457031 561.566406 517.746094 562.796875 517.011719 C 563.644531 516.425781 564.484375 515.832031 565.320312 515.234375 C 566.816406 514.175781 568.296875 513.171875 569.910156 512.292969 C 571.621094 511.378906 571.621094 511.378906 573.011719 510.0625 C 574.769531 508.523438 576.800781 507.71875 578.941406 506.828125 C 580.433594 506.175781 580.433594 506.175781 581.847656 505.128906 C 583.742188 503.917969 585.542969 503.292969 587.683594 502.660156 L 588.785156 502.316406 C 590.558594 501.777344 591.957031 501.5 593.824219 501.5 M 814.117188 512.359375 L 815.667969 512.359375 C 815.738281 515.238281 815.535156 517.902344 814.957031 520.730469 L 814.695312 522.019531 C 812.496094 532.296875 809.828125 542.707031 806.167969 552.5625 L 805.683594 553.894531 C 805.21875 555.078125 805.21875 555.078125 804.292969 556.828125 C 803.199219 557.199219 803.199219 557.199219 802.222656 557.347656 C 802.363281 543.941406 802.574219 530.214844 809.464844 518.238281 C 812.292969 513.898438 812.292969 513.898438 814.117188 512.359375 " fill-opacity="1" fill-rule="nonzero"/><path fill="#fefef5" d="M 702.9375 517.527344 L 705.523438 517.527344 C 706.59375 519.675781 706.136719 522.476562 706.136719 524.832031 L 706.15625 526.582031 C 706.160156 529.785156 705.953125 532.5625 705.003906 535.628906 L 702.9375 535.628906 C 701.644531 532.136719 701.21875 528.816406 701.191406 525.125 L 701.171875 523.925781 C 701.1875 521.917969 701.363281 520.683594 702.171875 518.800781 Z M 702.9375 517.527344 " fill-opacity="1" fill-rule="nonzero"/><path fill="#fdfdf4" d="M 909.265625 466.851562 C 912.5625 467.820312 915.835938 468.847656 919.089844 469.953125 L 917.539062 470.988281 C 916.253906 470.898438 916.253906 470.898438 914.792969 470.601562 L 913.269531 470.289062 C 911.726562 469.925781 910.234375 469.480469 908.75 468.921875 Z M 909.265625 466.851562 " fill-opacity="1" fill-rule="nonzero"/><path fill="#fefef5" d="M 516.773438 549.074219 L 517.808594 549.074219 C 516.960938 551.542969 515.605469 553.621094 514.191406 555.796875 L 512.636719 554.246094 L 514.191406 552.175781 L 514.996094 551.078125 C 515.742188 550.105469 515.742188 550.105469 516.773438 549.074219 M 537.976562 522.183594 L 539.011719 522.183594 C 538.304688 523.730469 537.484375 524.917969 536.359375 526.191406 L 535.515625 527.152344 L 534.875 527.871094 L 533.839844 526.835938 C 534.410156 525.296875 535.199219 524.394531 536.425781 523.347656 Z M 519.359375 544.417969 L 520.910156 544.417969 C 520.601562 546.15625 519.957031 547.199219 518.84375 548.554688 L 516.773438 548.039062 L 517.808594 546.488281 L 518.554688 545.355469 Z M 731.894531 485.984375 L 732.414062 487.019531 L 727.242188 488.054688 L 726.722656 486.5 C 728.484375 486.097656 730.089844 485.933594 731.894531 485.984375 " fill-opacity="1" fill-rule="nonzero"/></svg>